<?xml version="1.0" encoding="utf-8"?>
<!-- Generator: Adobe Illustrator 27.2.0, SVG Export Plug-In . SVG Version: 6.00 Build 0)  -->
<svg version="1.1" id="Capa_1" xmlns="http://www.w3.org/2000/svg" xmlns:xlink="http://www.w3.org/1999/xlink" x="0px" y="0px"
	 viewBox="0 0 1980 314" style="enable-background:new 0 0 1980 314;" xml:space="preserve">
<style type="text/css">
	.st0{fill:#FC7190;}
	.st1{fill:none;stroke:#FCDD51;stroke-width:12;stroke-miterlimit:10;}
	.st2{fill:#D3C4E0;}
	.st3{fill:none;stroke:#C9C93D;stroke-width:12;stroke-miterlimit:10;}
	.st4{fill:#F4C3BD;}
	.st5{fill:#FCDD51;}
	.st6{fill:none;stroke:#FCDD51;stroke-width:11;stroke-miterlimit:10;}
	.st7{fill:#C9C93D;}
	.st8{fill:#A3BAD7;}
	.st9{fill:#B3DAAB;}
	.st10{fill:#F27F47;}
	.st11{fill:#F6CAB7;}
	.st12{fill:none;stroke:#FFFFFF;stroke-width:40;stroke-miterlimit:10;}
	.st13{fill:#FFFFFF;}
	.st14{fill:none;stroke:#000000;stroke-miterlimit:10;}
	.st15{fill:#FFFFFF;stroke:#000000;stroke-miterlimit:10;}
	.st16{fill:#E6E6E6;stroke:#000000;stroke-miterlimit:10;}
	.st17{fill:#E7B566;}
	.st18{fill:#F0B563;}
	.st19{fill:#FCA532;}
	.st20{fill:#F76C0D;}
	.st21{fill:#E9803E;}
	.st22{fill:#EFA563;}
	.st23{fill:#ED782B;}
	.st24{fill:#EF8A4E;}
	.st25{fill:#BDA85D;}
	.st26{fill:#C1A369;}
	.st27{fill:#90932A;}
	.st28{fill:#FCBCB1;}
	.st29{fill:#EAAD9C;}
	.st30{fill:#FBBBAA;}
	.st31{fill:#FAE9DD;}
	.st32{fill:#FBE7DC;}
	.st33{fill:#F8EBDA;}
	.st34{fill:#CDC2A0;}
	.st35{fill:#F87290;}
	.st36{fill:#F67390;}
	.st37{fill:#FA7290;}
	.st38{fill:none;stroke:#FFFFFF;stroke-width:6;stroke-miterlimit:10;}
	.st39{fill:none;stroke:#FFFFFF;stroke-width:0.75;stroke-miterlimit:10;}
	.st40{opacity:0.86;}
	.st41{fill:none;stroke:#FF9966;stroke-width:10;stroke-miterlimit:10;}
	.st42{fill:none;stroke:#FFFFFF;stroke-width:2;stroke-miterlimit:10;}
	.st43{fill:#F74674;}
	.st44{fill:#F85D86;}
	.st45{fill:#F7B3B0;}
	.st46{fill:#A67C52;}
</style>
<rect x="2" y="1" class="st4" width="1985" height="326"/>
<g>
	<g>
		<g>
			<path class="st43" d="M1146,201.5c-0.5-1.9-0.7-3.9-0.7-5.8c0-1.8,0.6-12.8,0.5-14.5c-10.5-0.7-21.1-0.6-31.5-0.3
				c0,3.1,0.1,6.2,0.5,9.1c0.3,2.9,0.9,5.6,0.9,8.3c0.1,1.9-0.5,3.9-1.6,5.4c-1.4,1.9-4.2,3-6.6,2.9c-2.1-0.2-4.1-1.4-5.4-2.9
				c-0.2-0.5-0.7-0.7-0.9-1.1c-0.9-1.2-1.3-2.8-1.6-4.3c-1.2-5.5-0.9-11.2-0.3-16.7c-2.2,0.1-11.9,0.8-14.1,0.4
				c-2.7-0.6-3.4-4.5-1-6.2c1.8-1.3,4.2-1.8,6.3-2.2c3.4-0.7,6.7-1.1,10.1-1.5c1.4-7.7,3-15.4,6-22.6c3-7.1,6.6-14.3,11.5-20.1
				c2.5-2.8,5.5-5.4,8.8-7.3c3-1.8,7-2.6,10.4-1.8c3,0.7,5.7,2.8,7.7,5.2c3.1,3.6,5.3,8,6.8,12.5c3.7,10.5,5.1,21.8,6,33
				c2.2,0.4,4.5,1,6.4,2.1c1.6,0.8,3.2,2.3,3.5,4.1c0.5,3.1-1.9,5.7-5,5.4c-1.5-0.2-3-0.3-4.4-0.5c0,1.7,0.2,12.1,0.3,13.8
				c0,0.6,0.3,3.7,0.3,4.1c-0.1,0.9-0.7,3-1.4,3.6c-0.7,0.7-1.7,1.2-2.7,1.3C1151.7,206.7,1147,204.7,1146,201.5z M1114.9,170.5
				c10.2-0.7,20.5-1.8,30.8-1.1c0-7.3,0.5-14.7-0.8-21.7c-0.6-3.6-1.3-7.3-2.7-10.7c-0.4-1-2.3-4.9-2.9-5.6c-2.8-3.5-7.8-1.3-11,1.7
				c-0.8,0.7-3.4,4.6-4,5.4C1118.7,148.1,1116.3,159.5,1114.9,170.5z"/>
			<path class="st43" d="M1174.3,195.5c-1.1-1.9-1.3-4.3-1.3-6.5c0-1.7-0.4-12.2-0.5-13.8c-0.1-3.2,0.1-20.8,0.3-23.9
				c0.1-0.8,0.1-1.7,0.3-2.5c0.6-2,2.2-2.9,4.1-2.9c2.1,0.2,3.8,2.3,3.4,4.3c0,0.3,0.2,1.8,0.2,2.2c1.7-3.1,4.6-5.7,7.6-7.6
				c3.5-2.2,9.4-4.5,12.4-1.7c0.6,0.7,1.2,1.5,1.4,2.4c0.5,2-0.9,4.7-2.8,5.6c-1.1,0.5-2.4,0.3-3.5,0.6c-3.2,0.5-6.1,3-7.8,5.7
				c-3.2,5.1-4.2,11.6-4.1,17.6c0,4.1,0.5,8.3,1,12.4c0.3,2.5,1,5.1,0.2,7.4C1183.4,199.5,1176.8,200,1174.3,195.5z"/>
			<path class="st43" d="M1224,200.3c-2.6-0.6-5-2.6-6.6-4.7c-3-3.9-4.2-9-4.8-13.9c-0.5-5.5-0.5-11.1-0.1-16.6
				c-2.2,0.1-4.4,0-6.6-0.2c-3.8-0.5-4.1-6.2-0.5-7.1c1-0.3,7.2-1.5,8.3-1.6c1.5-8.4,4.5-16.5,7.3-24.5c1.1-2.9,5-4,7.3-2
				c1.2,1,2.1,2.7,1.8,4.2c-0.4,2.5-2.7,17.4-3,19.9c2.3-0.3,4.7-0.4,7.1,0c1.9,0.4,3.9,1.3,5.5,2.7c2,1.7,1.6,4.9-0.7,6.2
				c-0.7,0.4-1.7,0.4-2.5,0.4c-3.5,0.1-7,0.4-10.4,0.7c-0.7,8.1-0.8,16.5,1.1,24.6c0.3,1.4,1.1,2.6,2,3.6c0.2,0.3,0.8,0.1,1.1,0
				c1.7-0.5,2.8-1.4,3.7-3.1c1-2,1.2-4.4,2.1-6.6c1.5-3.9,6.8-2.8,6.6,1.3c0,1-1,5.1-1.2,6c-0.7,2-1.6,4-2.9,5.7
				c-2.2,2.8-5.7,4.8-9.2,5.3C1228.4,200.7,1224.9,200.5,1224,200.3z"/>
			<path class="st43" d="M1256.7,193.5c-2.4-0.4-4.6-2-5.9-4.1c-2-3.4-2.7-7.7-2.7-11.7c0.1-7.7,1-15.4,1.9-23.1
				c0.2-1.5,0.5-3.1,1.4-4.3c2.2-2.9,6.5-3,8.9-0.1c0.7,0.8,1.3,1.9,1.3,3.1c-0.2,9.6-1,19.2-0.2,28.8c0,0.3,0.1,2.6,0.1,3
				c0.1,0.6,0.7,3.6,0.6,4.2C1261.7,191.9,1259.1,194,1256.7,193.5z M1250.9,135.4c-0.2-1.9,3.1-5.8,4.3-7.5c0.8-1.2,2-1.7,3.1-2.6
				c2.8-2.5,6.7-1.5,7.5,2.2c0.3,1.7-2.6,6.4-3.3,8c-0.8,1.5-2.4,2.7-4,3.4C1255.4,140.4,1251.4,138.9,1250.9,135.4z"/>
			<path class="st43" d="M1279.3,197.9c-4.7-2.7-8.1-8.5-8.9-13.9c-1.2-8,1.3-16.6,5.3-23.6c2.9-5.2,6.6-10.2,10.6-14.7
				c4.6-4.9,10.9-8.9,17.6-9.9c4-0.6,8.2,1,10.9,4.3c1.5,1.7,2.7,3.9,2.8,6.2c0.1,2.4-0.3,4.8-1.3,6.9c-1.3,2.8-5.1,3.3-6.5,0.5
				c-0.4-0.8-0.3-1.8-0.1-2.6c0.1-0.9,0.1-3-0.4-3.5c-0.7-0.7-1.6-1.2-2.5-1.2c-0.8,0-1.7,0.3-2.5,0.5c-3.3,1.3-5.8,3.9-8.5,6.4
				c-4.8,4.6-9.1,10.1-11.6,16.2c-1.2,2.7-1.9,5.7-1.9,8.7c0,2.5,0.4,5.6,2.1,7.5c1.3,1.7,3.7,2.4,5.9,2.5c4.3,0,8.7-1.8,12.2-4.6
				c3.2-2.5,6.3-5.2,8.9-8.5c2.1-2.6,3.6-5.6,5.5-8.4c3.1-4.4,9.8-3.6,10.9,1.8c0.5,2.5-0.2,5.2-1.3,7.5
				c-3.2,7.3-9.4,13.2-15.9,17.7c-4.9,3.5-10.6,6.1-16.7,6.7C1289,200.9,1283.7,200.3,1279.3,197.9z"/>
			<path class="st43" d="M1341.1,197.5c-2.8-1-5.3-3.4-6.5-6.1c-0.7-1.7-1-3.5-1.3-5.2c-1.3-9.1-0.8-18.7,1.9-27.5
				c0.5-1.6,3.1-8.6,4.1-10c3.1-4.1,9.2-0.6,7.5,4.3c-1.4,4.3-2.5,8.8-2.9,13.4c-0.5,4.1-0.2,8.4,0,12.5c0.2,2.6,0.6,5.1,1.5,7.5
				c1.8-1.4,3.1-3.3,4.4-5c3.5-4.9,6.6-10.2,9.4-15.6c1.1-2.1,6.5-12.4,7.2-14.6c0.3-1,0.7-2.2,1.5-2.9c2.4-2.6,6.5-2.1,8,1
				c0.4,0.8,0.6,1.8,0.6,2.7c0,4.6,0,9.2,0.4,13.7c0.3,4.5,1.3,9,3.4,12.8c1.4,2.5,3.8,4.2,5.3,6.5c1.9,2.8-0.6,7-3.9,6.6
				c-3-0.3-6.3-1.3-8.4-3.5c-4.2-4.5-5.8-11.4-6.4-17.6c-3.5,6.2-7.1,12.2-10.9,18c-1.8,2.6-3.6,5.2-6.1,7.3
				C1347.5,197.7,1344.2,198.4,1341.1,197.5z"/>
			<path class="st43" d="M1397.6,188c-1.8-3.3-2.7-6.9-3.5-10.5c-1.6-7.3-2.1-14.9-2.4-22.4c-0.3-7.3-0.6-14.5-0.5-21.8
				c0-4.2-0.1-8.6,0.6-12.8c0.4-3,3.9-6.2,7-6.5c1.7-0.2,3.7,0.5,4.9,1.7c2.1,2,3.3,5.4,2.6,8.3c-1.9,6.5-1.9,13.4-2.4,20.2
				c-0.7,11.3-0.8,22.9,0.6,34.3c0.1,1.3,0.8,7,0.6,8.2C1404.4,190.6,1399.5,191.5,1397.6,188z"/>
			<path class="st43" d="M1430.1,189.9c-3.1-0.5-6.3-1.8-8.6-3.9c-2.2-1.9-4.2-4.2-5.2-7c-1.3-3.3-2.2-6.9-2.2-10.6
				c0-4,0.5-8,1.4-11.9c0.1-0.3,0.4-2.1,0.5-2.4c0.4-1.2,2.8-7.3,3.4-8.4c2.4-4.5,6.3-8.5,10.9-10.8c2.6-1.3,5.4-2.3,8.2-2.5
				c3.1-0.2,6.2,0.4,9.1,1.4c4.9,1.8,8.9,5.9,10.5,10.9c5.1,16.1-2.1,37-17.4,44C1437.5,190,1433.6,190.4,1430.1,189.9z
				 M1436.9,177.1c1.9-1.2,3.6-2.7,4.9-4.5c4.1-4.8,5.9-11.8,5.5-18.2c-0.2-2.6-0.5-5.4-1.8-7.6c-0.7-1.4-2.1-2.6-3.7-3
				c-2.3-0.6-6.3,1.2-7.9,3.1c-0.4,0.5-2.5,3.3-2.9,3.9c-3.6,6.4-4.5,14.2-2.5,21.5c0.5,1.8,1.2,3.6,2.7,4.8
				c0.7,0.6,1.6,0.8,2.4,0.8C1434.9,178.1,1436,177.6,1436.9,177.1z"/>
			<path class="st43" d="M1471.7,189.3c-3.7-1.6-5.2-6.2-2.8-9.3c0.9-1.2,2.1-2.2,3.5-2.8c2.8-1.1,5.6-2.4,8.2-4.1
				c-2-3.5-4.9-6.3-7.8-8.9c-2.3-2.2-4.9-4.2-6.7-7c-1-1.6-1.7-3.5-1.6-5.3c0-3.9,2.3-7.7,4.9-10.5c3.4-3.5,7.6-6.4,11.8-8.7
				c3.3-1.7,6.9-3.2,10.5-3.8c0.2,0,0.4-0.2,0.8-0.4c1.1-0.3,2.6-0.4,3.6,0c1.6,0.8,3.3,1.4,4.4,2.7c1.9,2.2,2,5.9,0.1,8
				c-2.1,2.2-4.9,3.5-7.6,4.7c-5.1,2.2-9.9,5-14.2,8.2c2.4,2.9,5.3,5.4,7.8,8c3.4,3.7,6.3,8.4,6.8,13.4c0.9,8.1-8.9,14.2-16.7,16.2
				C1475.1,190.2,1473.2,190,1471.7,189.3z"/>
		</g>
		<g>
			<g>
				<g>
					<g>
						<g>
							<path class="st44" d="M1502.8,208.7c0.2-0.2,0.1-0.6-0.4-0.5l-0.4,0.7L1502.8,208.7z"/>
							<path class="st44" d="M1499.2,207.4c-0.6,0.3-1.4,0.9-1,1.5c0.6-0.6,0.8-0.4,1.5-1.1c0.5-0.1,0.9,0.2,0.8,0.5
								c0.2-0.2,0.8,0.2,1.1-0.3c-0.7-0.5-1.6-0.6-2.5-0.2C1498.9,207.7,1499.1,207.5,1499.2,207.4z"/>
							<path class="st44" d="M1446.2,206l0.3,0.1C1446.5,206.1,1446.4,206.1,1446.2,206z"/>
							<path class="st44" d="M1413.4,206.3c0.2,0,0.4-0.1,0.4-0.2C1413.6,206.2,1413.4,206.2,1413.4,206.3z"/>
							<path class="st44" d="M1407.8,205.7c0.1,0,0.2,0,0.3,0C1408,205.7,1407.9,205.7,1407.8,205.7z"/>
							<path class="st44" d="M1446.2,206l-0.9-0.2C1445.3,206.1,1445.8,206,1446.2,206z"/>
							<path class="st44" d="M1491.8,208.8c0.2,0,0.3-0.1,0.5-0.2c-0.2,0-0.3,0-0.4,0.1C1491.9,208.8,1491.9,208.8,1491.8,208.8z"/>
							<path class="st44" d="M1460.7,205.4l0.3,0c0.1-0.1,0.2-0.2,0.2-0.3L1460.7,205.4z"/>
							<path class="st44" d="M1471.8,205.3c-0.3,0-0.3,0.5-0.4,0.8c0.1-0.2,0.3-0.3,0.5-0.4C1471.9,205.6,1471.9,205.5,1471.8,205.3
								z"/>
							<path class="st44" d="M1489.4,206.5l0.3-0.1C1489.6,206.5,1489.5,206.5,1489.4,206.5z"/>
							<path class="st44" d="M1452.8,205.3c0-0.1-0.1-0.2-0.1-0.2C1452.7,205.2,1452.7,205.3,1452.8,205.3z"/>
							<path class="st44" d="M1144.9,239.5C1144.9,239.5,1144.9,239.5,1144.9,239.5C1144.8,239.5,1144.8,239.5,1144.9,239.5z"/>
							<path class="st44" d="M1131.7,239.2l0.2-0.1c0-0.1,0-0.2,0-0.3L1131.7,239.2z"/>
							<path class="st44" d="M1397.5,205.4C1397.5,205.4,1397.6,205.4,1397.5,205.4C1397.8,205.3,1397.7,205.4,1397.5,205.4z"/>
							<path class="st44" d="M1303.6,212c1.1,0.4-1.7,0.8,0,1.2C1303.4,213,1304.9,212.2,1303.6,212z"/>
							<path class="st44" d="M1491.6,208.8c-0.1,0-0.3,0-0.5,0C1491.3,208.8,1491.4,208.8,1491.6,208.8z"/>
							<path class="st44" d="M1303.6,213.2L1303.6,213.2l0.2,0C1303.7,213.3,1303.6,213.2,1303.6,213.2z"/>
							<path class="st44" d="M1373.9,206.8c0.1,0.1,0.2,0.2,0.3,0.2C1374.2,207,1374.1,206.9,1373.9,206.8z"/>
							<path class="st44" d="M1391.6,206.8l-0.4-0.1C1391.3,206.8,1391.4,206.8,1391.6,206.8z"/>
							<path class="st44" d="M1364.8,208.1c-0.2,0-0.3-0.1-0.6,0c0,0,0.1,0,0.1,0.1C1364.4,208,1364.6,208,1364.8,208.1z"/>
							<path class="st44" d="M1355.3,208.7c0.1,0,0.1,0.1,0.2,0.1c0.1,0,0.2,0,0.3,0L1355.3,208.7z"/>
							<path class="st44" d="M1173.2,234.1c-0.2-0.1-0.4-0.3-0.5-0.4C1172.9,234,1171.6,234.4,1173.2,234.1z"/>
							<path class="st44" d="M1491.8,208.5c-0.1,0.1-0.1,0.2-0.3,0.2c0.1,0,0.2,0,0.3,0C1491.9,208.7,1491.9,208.6,1491.8,208.5z"/>
							<path class="st44" d="M1364.7,212.5l-1.5,0C1363.6,212.5,1364.2,212.5,1364.7,212.5z"/>
							<path class="st44" d="M1240.5,223.8l-0.3,0.1C1240.3,223.9,1240.4,223.8,1240.5,223.8z"/>
							<path class="st44" d="M1358.7,212.9c-0.3-0.2-0.6-0.3-0.9-0.3c-0.1,0-0.1,0.1-0.2,0.2L1358.7,212.9z"/>
							<path class="st44" d="M1172.7,233.7L1172.7,233.7L1172.7,233.7z"/>
							<path class="st44" d="M1163.2,236.7c1.4-0.2,0.5-0.8,0.8-1.3c1.7-0.5,0.9,0.4,1.5,0.7c1-0.4,1.7-1.2,2.5-1.3
								c0.1,0.1,0.2,0.1,0.1,0.3c1-0.8,3.3-0.6,4.5-1.6c0.1,0,0.2,0.1,0.2,0.2c-0.3-0.3-0.4-0.7-0.4-1c0.6-0.1,1.1-0.7,1.4-0.2
								c-0.4,0.1-0.4,0.3-0.5,0.4l0.6-0.3c0.7,0.6-0.9,0.4-0.8,0.9c1.3-0.5,2.7-1.3,3.7-1.3c0.3,0.6-2.3,0.6-0.9,1l-1.6,0
								c1.4,0.8-0.9,0.1,0.3,1c2.1-0.2,2.2-0.8,4.3-0.9c0.4-0.4-0.2-0.5,0.1-1c2.8-1.1,2.5,1.3,4.5,0.1c0.5-0.5,0.5-1.4,2.1-1.2
								l-0.4,0.8c2-0.2,0.9-1.3,3.1-1.1c-0.3,0.4-1.5,0.5-1.2,0.5c1.4,0.4,0.9-0.6,1.9-0.8l0.3,0.6c2.1-0.4,4.3-1.3,6.6-1.8
								c-0.1,0.2-0.5,0.5,0.1,0.6c2.9-0.8,6.2-0.9,9.1-0.9l1-0.7c0.3,0,0.5,0.2,0.3,0.3c1.1,0.1,0-0.4,0.5-0.7
								c0.6-0.1,0.9,0.2,0.5,0.4c1.9-0.8,5.4-1.9,7.5-1.6l-0.4,0.2c1.6,0,1.6-1.5,3.2-1.1l-0.3,0.1c3.5-0.3,7.2-1.4,10-0.8
								c0.4-0.9,3.5-0.1,3.5-1.3c2.1,0.3,1.5,0.6,4.4,0.6c0.8,0,1-0.9,1.9-1.1l0.1,0.6l1.2-0.8l0.8,0.6l0.8-0.3
								c-0.3,0-0.8-0.2-0.7-0.4c1.3-0.5,3.3,0,3.4,0.3l3.1-0.9c0,0.3-0.6,0.4-1,0.6c1.6-0.9,0.4,0.6,1.9-0.2
								c-0.2-0.1,0.1-0.4,0.1-0.5c0.8,0.3,2.6,0.1,3.9-0.3l-0.2,0.5c2.4-0.2,5-0.8,7.6-1.1c-1-0.1-0.8-0.8-0.1-1l0.4,0.6
								c0.5-0.5-0.8-0.1,0.1-0.8c1,0,0.8,0.7,0.2,0.9l1.2-0.4c0.1,0.2-0.2,0.3-0.2,0.6c0.4-0.5,2.2,0.4,2.8-0.4l0.1,0.2
								c2.7-0.3,3.8-0.7,6-1c0-0.6,0.8-0.5,1.4-1.1c1.6,0,3.4,0.3,5.3,0c1.3-0.4,0.3-0.5,0.9-0.9c0.2,0.5,2.1,0.2,1.1,0.7
								c2.3-0.3,2.9-0.4,5.8-1.1c-0.3-0.2-0.7-0.2-0.5-0.4c0.5-0.1,1.2,0.1,1.2,0.3l-0.1,0.1c3.2-1.1,7.7,0.7,10.2-0.7l-0.1,0.1
								l2.6-0.8c1.3,0-0.7,0.5,0.2,0.7c2.8-1.1,4.6-0.3,7-1.1c2,1.3,6.6-0.7,9.2,0l-0.2-0.3c0.6-0.4,0.8,0.1,1.3,0.2
								c-0.1-0.3-0.7-0.3-0.3-0.5c5.5-0.9,11.4-0.4,17-0.6c2.1-0.1,1-1.9,3.7-1.3l-0.7,0.7c2-0.6,4.2-0.7,6.3-0.9
								c2.1-0.1,4.2-0.2,6.2-0.7c-0.2,0.2-0.2,0.4-0.6,0.4c0.9,0.4,3.2-0.2,3.2-0.6c0.6,0,0.2,0.3,0.6,0.5c0.9,0.2,2.1-0.8,2.6-0.3
								c0.1,0.1-0.2,0.2-0.4,0.2c0.5-0.3,2.6-0.1,2.1-0.6c1.5,0.2,2.9-0.4,4.2-0.2c0.8-0.7,2.6,0.1,2.8-0.8
								c-0.1,0.9,2.7,0.5,3.7,0.1c-0.3,0.3,0.9,0.2,0.5,0.6c1.1-0.1,2.1-0.3,1.9-0.7c2.1,1,4-1.1,5.3,0.2c3.3-0.7,6.3-1.1,9.2-1.5
								c-0.1,0.9-3.3,0.3-3.1,1.2c2.8-0.5,4.4-1.4,7.2-1.3c0.7,0.1-0.4,0.4-0.6,0.6c2.8-0.5,5.4-0.1,7.9-0.7c0,0.1-0.3,0.2-0.5,0.3
								c0.5,0,1.1,0.1,1.1-0.3l-0.5,0.1c-0.8-0.6,1.9-1.3,2-1.6c-0.8,1.2,2.5,0.2,1.2,1.7c0.3-0.1,0.7-0.3,0.6-0.6
								c0.5,0.1,0.6,0.2,0.2,0.5c1.8-0.3,1.1-0.7,2.7-0.8c0,0.2-0.3,0.3-0.5,0.5c0.8-0.4,1.6-0.8,2.9-0.7c-0.1,0.1,0.1,0.3-0.3,0.3
								c2.3-0.1,3.9-1.2,6.5-0.9c-0.7,0.9,0.9,0.3,1,1l1.4-0.3l-0.6-0.3c1.2,0,2.2-0.6,3.3-0.4l-0.9,0.3l2.2-0.2l-1.3-0.3
								c1.2-0.4-0.2-0.9,1.4-0.8c-0.3,0.1,1.2,0,1.8,0.4l0,0c0.6-0.3,1.2-0.5,2.1-0.4c0.2,0.2-0.2,0.8,0,1c0.6-0.6,2.8-0.2,3.5-0.9
								c-0.2,0.2-0.2,0.6-0.2,0.6l0.5-0.5c0.6,0.1,0.6,0.2,0.6,0.5c1.7,0.1-0.6-0.9,1.4-0.6c-0.2,0-0.1,0.1-0.4,0.2
								c2,0.2,3.8-0.4,5.7-0.2c0.6,0.7-1.6,0.2-1,0.8c2.6-0.2,5.4-1,8-0.9l-0.5-0.1c0.3-1.1,1.9,0.5,3.2,0c-0.3,0.1-0.4,0.6-0.3,0.5
								c1.7,0.2,3.6-0.3,6.2-0.7l-0.3,0.3c1,0.2,2.7,0.1,3.8,0.2c0.3-0.3,1-0.2,0.6-0.6c3.4,1.5,6.5-0.9,9.6,0.4
								c-0.4,0-0.9,0.2-0.6,0.2l2.6-0.2c-0.2-0.5-0.3-0.3-0.9-0.6c0.3-0.3,1.1-0.5,1.7-0.5c-1.2,0.3,0,0.7,0.5,1
								c-0.1-0.1,0.1-0.3,0-0.4c1.4,0.8,0.2-0.9,2.1-0.4l-0.1,0.2c0.7-0.1,1.3-0.4,2.1-0.4c0.3,0.5-0.7,0.2-0.8,0.7c1,0,2.1-1,3-0.5
								c-0.4,0.1-1.1,0.1-1.5,0.3c1,0.6,1.2,0.5,1.9,0.6l-0.1,0l1.8,0.3l-0.5-0.2c1.3-1.4,2.7-0.2,4.4-1.2c-1.7,0.9-0.3,0.5-0.4,1.1
								c0.4,0.2,1.1,0.4,0.9,0.5c0.8-0.5,1.4,0.4,2.6-0.3c0.1,0.2,0.9,0,0.7,0.5c1.1-0.2-0.3-0.3-0.2-0.6c1.7-0.7,3.9,0.9,6.3,0
								c2.1-0.3,2.5-1,4.4-1.3c0.6,0.3-0.5,0.7-0.5,0.7c1,0.3,1.8,0.3,2.8,0.1c-0.2,0.2,0,0.3,0.3,0.5c0.8,0,0.5-0.7,1.6-0.4
								c-0.2,0.2-0.4,0.6-0.8,0.8c0.9-0.2,1.9-0.5,2.8-0.7c0.2,0.3-0.6,0.5-0.9,0.7c1.1-0.1,2.8-0.3,3.2-0.8l-0.7-0.2
								c0.4,0,0.2,0.5-0.1,0.6c-0.9,0.4-1.3-0.2-1.4-0.4l0.7-0.1c-0.7-1.2-2.8,0.1-4.2,0l0.6-0.8l-1.4,0.7c-0.3-0.2-0.5-0.7,0.2-0.8
								c-1-0.4-0.9,0.3-1.7-0.2c-0.1-0.1,0-0.1,0-0.1l-1,0.2c0.2-0.2-0.2-0.6,0.4-0.5c-1.7-0.5-2.8,0.6-3.5-0.1l0.1,0
								c-2.4,0.2-0.2,0.6-2.1,1.3l-1.2-1.5l-0.2,0.6c-0.2,0-0.7-0.1-0.6-0.3c-0.9,0.4,0.2,0.3-0.4,0.7c-1.2-0.6-3.3,0.2-3.6-0.7
								c-0.4,0.5,1.1,0.4-0.1,0.7c-0.4-1-1.5,0.2-2.6-0.3c0.3-0.5,1.4-0.2,0.3-0.7c-0.7,0.9-2.1-0.2-3.1,0c0,0.7-2,0.3-3.6,0.5
								c0.1-0.2-2.9-0.4-4.4-0.7l0-0.1c-0.3,0.7-1.8,0.6-2.9,0.7c0-0.4,0.2-0.6,0.8-0.8l-1,0c-0.2,0.2-0.6,0.4-1.2,0.4l0.3-0.5
								c-1.4,0-2.7,0.6-4.5,0.3c-0.1,0.5,1.4,1.4-0.5,1.8c-0.1-0.3-0.1-0.7,0.3-0.9c-0.2,0-0.6,0.2-0.9,0.1l0.7-0.5
								c-0.8-0.2-0.4,0.4-1.1,0.4c0-0.4-0.5-0.3-0.4-0.6c0.2,0,0.6,0.2,0.8,0c-0.7-0.1-1.6-0.3-1.9-0.6c0.1,0.2,0,0.5-0.5,0.6
								c-1.4,0-0.5-0.5-1.3-0.7c-0.3,0.3-1.2,0-1.2,0.6c-0.4,0-0.5-0.3-0.6-0.4c-0.7,0.3-3.3,0.1-2.5,0.7l0.2,0c0,0-0.1,0-0.1,0
								c0,0,0,0,0,0l0,0c-2.3,0.6-4.8-0.3-7.1,0l0-0.2c-1.4,0.2-3,0.2-4,0.6c-0.4,0-1-0.4-0.8-0.6c-1,0.2-1.2,0.4-2.7,0.1
								c1-0.4-0.4-0.3,1.1-0.3c-1.4-0.1-1.7-0.4-3.1,0.1c0.5-0.5-1-0.6-1.7-0.4l1,0.3c-0.7,0.1-1.4,0.1-2,0l0.3-0.7
								c-2.8-0.7-5,1.5-7.1,0.2c-0.7,0.5,1.5,0.3,0.9,0.9c-1.3-0.1-2.6-1-3-1c-1.8-0.3-1.6,1-3.4,0.8c0.2,0.2,0.5,0.9-0.9,1.1
								c-1.3-0.1-1.6-1-0.8-1.2c0.3,0,0.5,0,0.4,0.1c0.4-0.1,0.9-0.2,0.4-0.5l-0.2,0.2c-0.6-0.2-2.4-0.2-2-0.6
								c-1,0.3-0.4,0.4,0.3,0.5c-1.6-0.3-2.6,0-4.3-0.1c0.3,0.1,0.5,0.4,0.3,0.4c-2.5-0.2-1.1,0.5-2.7,0.7c-1-0.3,0.3-0.9-1.4-0.5
								c-1-0.2-0.2-0.6,0.2-0.8c-1.5,0.5-2.9-0.2-3.8-0.2l0.8-0.2c-0.5,0.1-0.9,0.1-1.3,0.2l0.5,0.5c-0.5-0.1-0.9-0.1-0.9-0.2
								c-0.5,0.3,0.4,0.8-0.6,1.2c-0.6-0.2-1.9,0.3-2.2-0.3c2,0.1-0.2-0.6,1.4-0.8c-0.3,0.1-0.7,0.1-1.2,0c-0.1-0.1,0.1-0.1,0.2-0.2
								c-1.9-0.5-0.8,0.7-2.8,0.8c0.2-0.4-0.5-0.7-0.8-0.6c0.8,0,0.4,0.6-0.3,0.9c-1.3-0.2-1.4,0.3-2,0.3l0.8,0.1
								c-0.2,0.4-0.9,0.3-1.8,0.5c-0.1-0.3,0.8-0.2,0.5-0.3c-1,0.7-2.2-0.6-3.6-0.1c-0.6-0.2-0.1-0.7-0.7-0.8
								c-1.5,0.5-1.7-0.4-3.3,0.1c0.5,0.5,0.6,0.3-0.5,0.9l2.6-0.5l-1.7,0.8c0.8,0,1.7-0.4,2.2-0.3c-0.8,0.4-0.7,0.3-0.3,0.7
								c-1.1-0.7-2.1,0.5-3.4,0.1l0-1.2c-1.9-0.4-3.3,0.8-5.8,0.6l0.8,0.2c-0.3,0.5-1.5,0.1-2.3,0.4c0.1-0.4-0.5-0.5-0.8-0.7
								c0.1,0.3-1.8,0.1-2,0.9l-1.1-0.5c-2-0.1-2.2,1.2-4.1,1.2c0.6-0.5-0.3-0.7,0.9-1.1c-0.6,0-1.2,0-1.2,0.3
								c-0.4-0.2-1.7,0.6-2.4,0.3c-0.3,0.2-0.3,0.6-1,0.6c-0.1-0.1,0-0.2,0-0.2c0,0.2-1.1,0.3-0.5,0.7c-2-1.1-5.5,0.4-7.3-0.5
								c-1.4,0.2-3.1,0.5-4.3,0.6c0.1-0.1,0-0.2,0.2-0.2c-1.8-0.3-1,1.2-3,0.9c-1.1-0.6,1-0.4,0.4-0.6c-0.4-1.3-2.4,0.3-3.8-0.3
								l0.3-0.1c-1.1-0.4-2.5,0.7-4.1,0.7c0,0,0.1-0.1,0-0.2c-1.1,0.7-3.2,1.1-4.8,1.4c0.5-0.5,0.7-0.3,0.4-0.8
								c-0.7,0.1,0.3,0.8-1.2,1.1c-0.5-0.2-1.5-0.4-1.7-0.9l1.4-0.1c-0.7-0.7-1.8,0.2-2.5,0.1l0.1-0.3c-2.1,0.3-2,1.1-4.3,1.2
								l0.2,0.2c-1.2,0.9-1.1-0.4-2.2,0.3l-0.4-0.8c-0.8,0.3-2.8,1-4.2,1.2c0.8-0.6,2.4-1.1,3.4-1.5c-0.8,0.1-2.7,0.3-3.1,0.7
								c0.3-0.1,0.7-0.3,1-0.2c-0.9,0.7-2.2,1.1-3.8,1.2c0.2-1.5-4.2-0.1-5.4-1.1c-2.8,0.8-5.6,0.3-8.9,0.7c1.3,1.1-1,0.1-0.6,1.3
								c-0.8,0.1-1,0.2-1.1,0.1l-2.4-0.5c-0.6-0.3,0.7-0.3,0.6-0.6c-1.7,0.1-0.7-0.5-1.9-0.7c0.3,0.4-0.5,0.7-1.5,0.6l1.4,0.4
								c-2.3,0.9-2.1-0.8-4.4,0l0.7-0.5c-1.2,0.3-4.4,0.4-5.5,1.5c-0.2-0.1-0.5-0.4,0-0.6c-2.9,0.2-6.3,1.7-8.6,1.4l0.2-0.3
								c-0.5,0.1-0.9,0.7-1.6,0.4c0-0.1,0.2-0.3-0.1-0.3c-0.3,0.1-1.4,0.7-2.1,0.6l0.6-0.4c-2.8-0.1-4.2,1.3-6.5,1.7
								c-0.1-0.9-2.3-0.9-3.5-0.9l0-0.1c-3.3,0.3-5.5,1.4-8.4,2.1c-2-0.7-6.4,0.4-9.5,0.2c0.5,0.1,0,0.7-0.5,0.8
								c-0.7-0.1-1.9,0.8-1.9,0l0.3,0c-0.6-0.7-2.1-0.3-3.2-0.2l-0.1,1.1c-3.2-1.1-7.7,1.6-9.5,0.5c-0.7,0.4-1.6,0.5-2.2,0.8l0-0.6
								c-2,0.1-3,0.2-5.4,0.7l0.4-0.5c-1.4,0.1-1.5,1.9-2.8,2.1l-0.5-0.8c-2.4,0.3-4.9,0-7.2,1.1c0-0.1,0.1-0.4,0.4-0.5
								c-1.1,0.1-4.5,0.1-3.9,1.2c-0.1-0.7-2.5,0.3-3.7,0.8l0.1-0.6c-1,0.9-1,1.1-2.5,1.5c-0.4,0-0.4-0.4,0.1-0.3
								c-1.3-0.1-0.9,0.7-2.4,0.6l0.5-0.4c-1.2,0.1-1.1,0.3-1.7,0.8c-0.7,0.3-2.4,0.2-2.6-0.3c-0.1,0.3-0.7,0.8-1.5,0.8
								c-0.1-0.2,0.1-0.3,0.2-0.4c-2.1-0.1-3,1.1-4.5,0.8c-0.1-0.2-0.2-0.3-0.3-0.3c1.7-0.3,3-0.4,2.9-0.4c-0.1-0.5-1.4-0.4-0.5-1.3
								c-1,0.6-2.7,1.7-4,1.7c-0.1,0-0.1-0.1-0.2-0.1l0.1-0.1c-0.3,0-0.6,0.1-0.8,0.2c-0.4,0-0.7,0-1.1,0c-0.2-0.4-1.6,0-2.2,0.1
								c0.1,0.5-0.7,0.6,0.1,0.9c-0.1,0,0.1-0.1,0.6-0.2c0.1,0,0.2-0.1,0.3-0.1c0,0,0,0,0,0.1c0.4-0.1,1-0.2,1.6-0.3
								c-0.5,0.4-1,0.7-1.8,0.5c-0.3,0.4-0.6,0.8-0.8,1c-1-0.6-2.9-0.8-3.2-1.2c-2,0.6-4.7,1-5.8,2.2c-0.6,0.2-0.7-0.2-1-0.3
								c0.3-0.2,0.7-0.2,0.9-0.4c-1.1,0.5-3.4,0.7-3.5,1.4c-1.5-0.1,0.7-0.8-1.3-0.4l0.2-0.3c-4.1-0.5-6,3-10.6,2.3
								c0.3,0,0.5,0.1,0.6,0.2c-5.1,0.2-10.1,2.4-15.2,2.3c-1.4,0.1-1.5,0.5-2.3,1.1l-0.4-0.5l-1.3,1c-2,0.9-3.8-0.8-6.2,0.7
								l0.4,0.3c-0.9,0.1-2.9,0.8-2.8,0.3c-0.1,0.1-0.2,0.5-0.6,0.3l-0.1-0.3l-2.2,1c-1.8,0.1,0-1.3-2.6-0.8
								c-0.9,0.3-2.6,1.4-2.2,1.6c0.4-0.1,1,0,1.1,0.3l-0.8,0.3c0,0.9-0.5,2,1.8,2.2l1.4-0.8l0.6,0.4l-1.3,0.3
								c0.8,0.3,1.2-0.2,1.6-0.5c0.2,0.2,0.4,0.3,0.7,0.4l1.3-1.2c0.2,0.3-0.5,0.8,0.5,0.8c0.6-0.5-0.8-0.7,0.3-1.2
								c0.8,0.3,0.7,0.7,1.4,0.1c0.2,0.2,0,0.4-0.3,0.6c0.7-0.4,2-0.5,2.3-1.1c0.8,0.4,2.5-0.6,2.6,0.3c0.2-0.3,1.2-0.9,1.9-1.1
								c-1.1,1.3,2.6-0.4,2.5,0.7c0.8-1.1,3.3-1.1,4.8-1.9c-0.1,0.1-0.2,0.3-0.4,0.3c0.9-0.1,1.3,0.1,1.9,0.2c0-0.8,1.4-1.2,2.1-1.8
								c1.3,0.5-0.5,1,0,1.7c-0.2-0.6,1.9-1,1.4-1.4c1,0.3,0.8,0.1,1.4,0.6c0-1,0.8-0.3,1.4-1c1.4,0.3,0.5,0.8,1.8,0.3
								C1164.3,236.2,1163.2,236.7,1163.2,236.7z M1196,229.4C1196,229.4,1196,229.5,1196,229.4c-0.3,0.1-0.5,0.1-0.7,0.2
								C1195.4,229.6,1195.6,229.5,1196,229.4z M1198.7,229c-0.3,0-0.8,0.1-1.2,0.2c-0.1-0.2-0.1-0.4,0.2-0.4
								C1197.6,228.9,1198.3,228.9,1198.7,229z M1192.2,226.1c0.4-0.2,0.6-0.1,0.7,0c-0.2,0-0.4,0.1-0.8,0.2c0,0,0,0.1,0,0.1
								C1192.1,226.3,1192.2,226.2,1192.2,226.1z"/>
							<path class="st44" d="M1191.6,227c-0.1,0-0.1,0.1-0.2,0.1c0.1,0,0.2,0.1,0.3,0.1c0-0.1,0.1-0.1,0.1-0.2
								C1191.7,226.9,1191.6,226.9,1191.6,227z"/>
							<path class="st44" d="M1446.6,206.1L1446.6,206.1C1446.6,206.1,1446.7,206.2,1446.6,206.1
								C1446.7,206.2,1446.7,206.2,1446.6,206.1z"/>
							<polygon class="st44" points="1237.4,224.5 1237.4,224.3 1237.2,224.5 							"/>
							<path class="st44" d="M1462.2,208c0,0,0.1,0.1,0.2,0.1C1462.4,208.1,1462.3,208,1462.2,208z"/>
							<path class="st44" d="M1468.9,208.1l0.9,0.2C1469.5,208.2,1469.2,208.2,1468.9,208.1z"/>
							<path class="st44" d="M1474.1,208.4c0.1-0.1,0.1-0.2,0.1-0.2l0,0L1474.1,208.4z"/>
							<path class="st44" d="M1392.1,210.5c-0.1,0-0.1,0-0.2,0C1391.4,210.7,1391.7,210.6,1392.1,210.5z"/>
							<path class="st44" d="M1416.4,208.4c-0.3,0.1-0.5,0.2-0.8,0.3C1416.1,208.7,1416.4,208.7,1416.4,208.4z"/>
							<path class="st44" d="M1364.9,212.5C1364.9,212.5,1364.9,212.5,1364.9,212.5c-0.1,0-0.1,0-0.2,0L1364.9,212.5z"/>
							<path class="st44" d="M1414.5,208.7c0.4,0.1,0.8,0.1,1.1,0C1415.3,208.6,1414.9,208.6,1414.5,208.7z"/>
							<path class="st44" d="M1496.4,209l0.2,0c0,0,0-0.1,0-0.1L1496.4,209z"/>
							<path class="st44" d="M1496.7,208.9l0.3-0.1C1496.9,208.8,1496.8,208.8,1496.7,208.9z"/>
							<path class="st44" d="M1497.6,208.7l-0.6,0.1C1497.2,208.9,1497.4,208.9,1497.6,208.7z"/>
							<path class="st44" d="M1489.6,208.6l-0.1,0.2C1489.6,208.8,1489.6,208.7,1489.6,208.6z"/>
							<path class="st44" d="M1487.5,208.6c0.5,0.1,1.2,0.5,1.9,0.3l0.1-0.2C1489.2,209.1,1488,208.3,1487.5,208.6z"/>
							<path class="st44" d="M1478.9,206l1.7,0.2c-0.3-0.2-0.7-0.5,0.1-0.6C1478.5,204.9,1481.2,206.1,1478.9,206z"/>
							<path class="st44" d="M1473.5,205.6c0.9-0.1,0-0.3,0-0.4C1472.9,205.4,1472.8,205.4,1473.5,205.6z"/>
							<path class="st44" d="M1434.4,205.8l0.1-0.5C1433.8,205.4,1434.5,205.5,1434.4,205.8z"/>
							<polygon class="st44" points="1427,208.6 1427.7,208.9 1428.1,208.4 							"/>
							<polygon class="st44" points="1422.6,205.1 1422.9,205 1421.7,205.2 							"/>
							<path class="st44" d="M1357,208.1l0.3,0.6C1357.7,208.5,1357.8,207.8,1357,208.1z"/>
							<path class="st44" d="M1328.8,210.7c-0.3-0.3-1.1-0.4-1.6-0.1C1327.8,210.6,1328.5,210.8,1328.8,210.7z"/>
							<polygon class="st44" points="1244.2,218.5 1244.8,218.2 1243.7,218.5 							"/>
						</g>
					</g>
				</g>
			</g>
		</g>
	</g>
	<g>
		<path class="st43" d="M433.2,159.4c0-3.2,2.3-5.4,5.4-5.4c3,0,5.3,2.3,5.3,5.4c0,3.2-2.3,5.4-5.4,5.4
			C435.5,164.9,433.2,162.6,433.2,159.4z M435.8,172h5.5l1.5,55.6h-8.6L435.8,172z"/>
		<path class="st43" d="M461.3,131.6h37.4v7.1h-29.8v24.5h22.8v7.1h-22.8v27.2h30.3v7.1h-37.9V131.6z"/>
		<path class="st43" d="M521,179l-15.7-24.5h8.5l11.9,19.1l11.8-19.1h8L529.7,179l16.3,25.6h-8.3L525,184.6l-12.4,20.1h-8L521,179z"
			/>
		<path class="st43" d="M555.7,154.5h7v8.5c4-6,10.4-9.6,17.9-9.6c13.2,0,23.8,11.6,23.8,26.2c0,14.6-10.6,26.2-24,26.2
			c-7.5,0-13.8-3.6-17.8-9.5v35.6h-7V154.5z M597.1,179.6c0-11.1-7.6-19.5-17.7-19.5c-10.3,0-17.8,8.5-17.8,19.5
			c0,11.1,7.5,19.6,17.8,19.6C589.6,199.2,597.1,190.7,597.1,179.6z"/>
		<path class="st43" d="M616.9,127.3h7v77.4h-7V127.3z"/>
		<path class="st43" d="M636.5,179.6c0-14.4,11.4-26.2,25.5-26.2c14.1,0,25.5,11.7,25.5,26.2c0,14.4-11.4,26.2-25.5,26.2
			C647.8,205.7,636.5,194.1,636.5,179.6z M680,179.6c0-11.2-7.7-19.5-18.1-19.5c-10.4,0-18.1,8.3-18.1,19.5
			c0,11.2,7.7,19.5,18.1,19.5C672.3,199.1,680,190.8,680,179.6z"/>
		<path class="st43" d="M699.9,154.5h7v7.6c3.8-5.8,8.7-8.7,14.5-8.7c1.1,0,2.3,0.1,2.9,0.2l-1.4,8c-0.9-0.2-1.8-0.3-2.9-0.3
			c-7.8,0-13.1,5.1-13.1,13.5v29.9h-7V154.5z"/>
		<path class="st43" d="M729.8,190.2c0-9.5,8.3-16.2,19.3-16.2c6.1,0,10.4,1.2,14.8,3.9v-3.2c0-8.9-5.3-14.9-13.2-14.9
			c-5,0-9.3,2.3-12.6,6.8l-5.2-4.4c4.8-5.7,11.2-8.7,18.1-8.7c11.6,0,19.9,8.7,19.9,20.4v30.8h-7v-7.8c-4.2,6-10,8.9-16.7,8.9
			C737,205.7,729.8,199.2,729.8,190.2z M763.9,184.7c-4.8-3.4-8.9-4.8-15.1-4.8c-7.3,0-12,3.9-12,9.9c0,5.9,4.6,9.6,11.7,9.6
			C757.5,199.4,763.9,193.4,763.9,184.7z"/>
		<path class="st43" d="M806.7,179.6c0-15,10.3-26.2,24.6-26.2c13.5,0,23.6,9.9,23.6,24.2c0,1.5-0.1,2.7-0.3,3.9h-40.4
			c0.9,10.8,8.1,17.4,18.6,17.4c6.5,0,12-2.5,16.5-7.6l4.6,3.8c-5.2,7-12.9,10.6-21.5,10.6C817.2,205.7,806.7,194.6,806.7,179.6z
			 M847.4,175.2c-1.2-9.5-7.5-15-16.3-15c-9.1,0-15.3,6-16.7,15H847.4z"/>
		<path class="st43" d="M863.1,194.7l5.2-4.5c4.1,6.2,9.4,9.3,16,9.3c6.8,0,11.4-3.3,11.4-8.3c0-4.1-3.3-6.4-11.5-8.6
			c-12.4-3.2-17.8-7.8-17.8-15.3c0-8.4,6.8-14,17-14c7.8,0,14.3,3.3,19,9.3l-5.2,4.4c-3.5-4.9-8.2-7.4-14-7.4
			c-6.1,0-9.8,2.7-9.8,7.2c0,4.1,3.3,6.5,11.6,8.6c12.1,3.1,17.7,7.7,17.7,15.3c0,8.9-7.7,15-18.6,15
			C875.6,205.7,868.2,202,863.1,194.7z"/>
		<path class="st43" d="M919,191.3v-30.4h-7.6v-6.3h7.6v-13.3h7v13.3h14.8v6.3h-14.8v30.4c0,5.2,2.7,8.2,7.3,8.2
			c2.9,0,5.4-1.1,7.6-3.5l3.5,4.1c-3,3.6-6.9,5.7-12,5.7C924.1,205.7,919,200.2,919,191.3z"/>
		<path class="st43" d="M948.7,179.6c0-14.4,11.4-26.2,25.5-26.2c14.1,0,25.5,11.7,25.5,26.2c0,14.4-11.4,26.2-25.5,26.2
			C960.1,205.7,948.7,194.1,948.7,179.6z M992.3,179.6c0-11.2-7.7-19.5-18.1-19.5s-18.1,8.3-18.1,19.5c0,11.2,7.7,19.5,18.1,19.5
			S992.3,190.8,992.3,179.6z"/>
		<path class="st43" d="M1008.3,194.7l5.2-4.5c4.1,6.2,9.4,9.3,16,9.3c6.8,0,11.4-3.3,11.4-8.3c0-4.1-3.3-6.4-11.5-8.6
			c-12.4-3.2-17.8-7.8-17.8-15.3c0-8.4,6.8-14,17-14c7.8,0,14.3,3.3,19,9.3l-5.2,4.4c-3.5-4.9-8.2-7.4-14-7.4
			c-6.1,0-9.8,2.7-9.8,7.2c0,4.1,3.3,6.5,11.6,8.6c12.1,3.1,17.7,7.7,17.7,15.3c0,8.9-7.7,15-18.6,15
			C1020.8,205.7,1013.4,202,1008.3,194.7z"/>
		<path class="st43" d="M1537.3,199.8c0-3.2,2.3-5.4,5.4-5.4c3,0,5.3,2.3,5.3,5.4c0,3.2-2.3,5.4-5.4,5.4
			C1539.6,205.2,1537.3,202.9,1537.3,199.8z M1538.4,131.6h8.6l-1.5,55.6h-5.5L1538.4,131.6z"/>
	</g>
</g>
</svg>
