<?xml version="1.0" encoding="utf-8"?>
<!-- Generator: Adobe Illustrator 27.2.0, SVG Export Plug-In . SVG Version: 6.00 Build 0)  -->
<svg version="1.1" id="Capa_1" xmlns="http://www.w3.org/2000/svg" xmlns:xlink="http://www.w3.org/1999/xlink" x="0px" y="0px"
	 viewBox="0 0 890 500" style="enable-background:new 0 0 890 500;" xml:space="preserve">
<style type="text/css">
	.st0{fill:#F27F47;}
	.st1{fill:#F4C3BD;}
	.st2{fill:#FCDD51;}
	.st3{fill:#F74674;}
	.st4{fill:#D3C4E0;}
	.st5{fill:#FC7190;}
	.st6{fill:#C9C93D;}
	.st7{fill:#FFFFFF;}
	.st8{fill:none;stroke:#F27F47;stroke-width:7;stroke-miterlimit:10;}
	.st9{fill:none;stroke:#FFFFFF;stroke-width:0.75;stroke-miterlimit:10;}
	.st10{opacity:0.86;}
	.st11{fill:none;stroke:#FF9966;stroke-width:10;stroke-miterlimit:10;}
</style>
<g>
	<rect x="-11.3" y="-8.5" class="st0" width="420.9" height="512"/>
	<g class="st10">
		<polygon class="st11" points="430.8,99.5 389.8,99.5 389.8,73.7 419.1,73.7 419.1,47.7 389.8,47.7 389.8,24.4 430,24.4 430,-1.6 
			365.1,-1.6 365.1,125.5 430.8,125.5 		"/>
		<polygon class="st11" points="345.3,188.2 389.2,317.6 402.3,317.6 446.3,188.2 420.9,188.2 395.8,263.9 371.1,188.2 		"/>
		<polygon class="st11" points="365.1,505.1 430.8,505.1 430.8,479.1 389.8,479.1 389.8,453.3 419.1,453.3 419.1,427.3 389.8,427.3 
			389.8,403.9 430,403.9 430,377.9 365.1,377.9 		"/>
		<polygon class="st11" points="142.7,-3.9 142.7,125.5 166,125.5 166,49.8 229.4,127.8 242.3,127.8 242.3,-1.6 218.9,-1.6 
			218.9,74.1 155.5,-3.9 		"/>
		<rect x="187.1" y="164.5" class="st11" width="21" height="44.6"/>
		<polygon class="st11" points="34.6,-1.6 -56.3,-1.6 -56.3,24.4 -23.2,24.4 -23.2,125.5 1.5,125.5 1.5,24.4 34.6,24.4 		"/>
		<ellipse class="st11" cx="-10.9" cy="251.7" rx="32.5" ry="39.3"/>
		<ellipse class="st11" cx="-10.9" cy="251.7" rx="58.6" ry="66.2"/>
		<path class="st11" d="M-52.6,482.7c8.6,16.5,23.2,25.8,40.7,25.8c23,0,39-15.9,39-39.3c0-17.6-9.2-30.2-30.5-40.8
			c-11.7-5.7-17.6-10.1-17.6-17.8c0-7,4.7-11.6,12.2-11.6c7.6,0,13.7,4.4,20,13.7L27.5,396c-9.8-13.7-22-20.7-36.4-20.7
			c-21.5,0-36.9,15.6-36.9,38c0,17.6,9.2,29.8,30.2,40.2c13.6,6.6,18,11,18,18c0,7.6-5.8,12.7-14.4,12.7c-9.5,0-17.3-5.9-23.2-17.6
			L-52.6,482.7z"/>
	</g>
	<g>
		<path class="st7" d="M39.8,146.6H86v16.5H57.4v14.8h20.9v16.5H57.4v16.4h29.2v16.5H39.8V146.6z"/>
		<path class="st7" d="M93.3,146.6h18.3l17.6,48l17.9-48h18.1l-31.4,82.1h-9.3L93.3,146.6z"/>
		<path class="st7" d="M174.9,146.6h46.2v16.5h-28.6v14.8h20.9v16.5h-20.9v16.4h29.2v16.5h-46.8V146.6z"/>
		<path class="st7" d="M253.4,179.2v48h-16.7v-82.1h9.2l45.1,49.5v-48h16.7v82.1h-9.2L253.4,179.2z"/>
		<path class="st7" d="M56.7,307.5H33.2V291h64.7v16.5H74.3v64.2H56.7V307.5z"/>
		<path class="st7" d="M97.3,331.4c0-23.8,18-42,41.8-42c23.7,0,41.8,18.2,41.8,42c0,23.7-18.1,42-41.8,42
			C115.2,373.4,97.3,355.1,97.3,331.4z M162.2,331.4c0-14.1-9.8-24.9-23.2-24.9c-13.4,0-23.2,10.8-23.2,24.9s9.8,24.9,23.2,24.9
			C152.4,356.3,162.2,345.6,162.2,331.4z"/>
		<path class="st7" d="M186.8,357.5l12.3-10.2c4.2,7.5,9.8,11.2,16.5,11.2c6.2,0,10.3-3.3,10.3-8.1c0-4.5-3.1-7.2-12.8-11.4
			c-15-6.6-21.5-14.3-21.5-25.5c0-14.2,11-24.1,26.3-24.1c10.3,0,19,4.5,26,13.1l-11.7,10.6c-4.5-5.9-8.8-8.7-14.2-8.7
			c-5.3,0-8.7,2.9-8.7,7.3c0,4.9,4.2,7.7,12.6,11.3c15.2,6.7,21.7,14.7,21.7,25.9c0,14.8-11.3,24.9-27.8,24.9
			C203.4,373.9,193,368,186.8,357.5z"/>
	</g>
</g>
<rect x="393" y="-4.6" class="st2" width="500" height="506.1"/>
<image style="overflow:visible;" width="720" height="732" xlink:href="62CD8889.jpg"  transform="matrix(0.5546 0 0 0.5546 452.964 35.5)">
</image>
</svg>
