<?xml version="1.0" encoding="utf-8"?>
<!-- Generator: Adobe Illustrator 27.2.0, SVG Export Plug-In . SVG Version: 6.00 Build 0)  -->
<svg version="1.1" xmlns="http://www.w3.org/2000/svg" xmlns:xlink="http://www.w3.org/1999/xlink" x="0px" y="0px"
	 viewBox="0 0 657 442.4" style="enable-background:new 0 0 657 442.4;" xml:space="preserve">
<style type="text/css">
	.st0{fill:#FFFFFF;}
	.st1{fill:#EF0A21;}
	.st2{fill:none;stroke:#000000;stroke-width:10;stroke-miterlimit:10;}
	.st3{fill:none;stroke:#000000;stroke-width:11;stroke-linecap:round;stroke-miterlimit:10;}
	.st4{fill:none;stroke:#000000;stroke-width:11;stroke-miterlimit:10;}
	.st5{fill:none;stroke:#000000;stroke-miterlimit:10;}
	.st6{fill:none;stroke:#000000;stroke-width:8;stroke-miterlimit:10;}
	.st7{fill:none;stroke:#000000;stroke-width:4;stroke-miterlimit:10;}
	.st8{fill:none;stroke:#000000;stroke-width:5;stroke-miterlimit:10;}
	.st9{fill:#FC7190;}
	.st10{fill:#F27F47;}
	.st11{fill:#FCDD51;}
	.st12{fill:#F4C3BD;}
	.st13{fill:#D3C4E0;}
	.st14{fill:#C9C93D;}
	.st15{fill:#F74674;}
	.st16{fill:none;stroke:#FFFFFF;stroke-width:11;stroke-miterlimit:10;}
	.st17{fill:none;stroke:#F4C3BD;stroke-width:11;stroke-miterlimit:10;}
	.st18{fill:none;stroke:#F27F47;stroke-width:11;stroke-miterlimit:10;}
	.st19{fill:none;stroke:#FCDD51;stroke-width:11;stroke-miterlimit:10;}
	.st20{fill:none;stroke:#FFFFFF;stroke-width:2;stroke-miterlimit:10;}
	.st21{fill:none;}
	.st22{fill:none;stroke:#C9C93D;stroke-width:11;stroke-miterlimit:10;}
	.st23{fill:none;stroke:#F74674;stroke-width:11;stroke-miterlimit:10;}
</style>
<g id="Capa_1">
	<rect class="st11" width="657" height="442.4"/>
	<g>
		<g>
			<path class="st15" d="M256.5,238H255c-10.4,0.6-17.8,9.9-17.8,9.9s-6.5-10.2-19.9-10.2c-0.7,0-1.3,0-2.1,0.1
				c-10,0.7-22.8,7.4-22.8,30.6v29.4c0,1.1,0.9,2,2,2h7.4c1.1,0,2-0.9,2-2v-20.3c0-4.4,0-7.7,0-7.7c0-15.1,2.9-22.2,12.7-22.4
				c0.1,0,0.1,0,0.2,0c7.6,0,12.7,6.8,12.7,16.6c0,0,0,1.9,0,5.9c0,1,0.8,1.7,1.7,1.7l0,0c0.9,0,1.7,0.1,2.6,0c0.8,0,1.5,0,2.2,0
				c1.3,0,2.6,0,3.8,0c0.9,0,1.7-0.8,1.7-1.7c0-3.3,0-5.7,0.1-5.7c0-10.8,5.9-16.8,13-16.8c1,0,2.1,0.1,3,0.4
				c9.1,2.2,9.6,11.7,9.6,19.4v2.7c0,0,0,3.3,0,7.7v20.3c0,1.1,0.9,2,2,2h8.1c1.1,0,2-0.9,2-2v-24.4c0-5.2,0-9.2,0-9.2
				C279.5,251,271.6,238,256.5,238z"/>
			<path class="st15" d="M353.4,269.4v30.3h-12.1V292c-0.1,0.1-7.3,9.1-19.7,9.1h-0.1c-19.2,0-31.4-14.6-31.4-31.7
				c0-15.1,9.9-31.4,31.6-31.4c0.1,0,0.1,0,0.2,0C337.6,238.1,353.4,247.3,353.4,269.4z M302.6,269.4c0,11.5,8,20.6,19.4,20.6
				c11.5,0,19.9-9.1,19.9-20.6c0-11.4-8.4-20.6-19.9-20.6C310.6,248.9,302.6,258.1,302.6,269.4z"/>
			<path class="st15" d="M409.2,299.6v-30c0-13.7-6.2-21.2-17.1-21.2c-10.7,0-16.3,7.4-16.3,21.3v30l-11.5-0.1v-33.4
				c0-15.4,10.5-28.3,29.1-28.3c7,0,28,1.5,28,28.3v33.4H409.2z"/>
			<path class="st15" d="M493.9,269.4c0,17.3-14.2,31.5-31.5,31.5c-17.3,0-31.5-14.2-31.5-31.5c0-17.3,14.2-31.5,31.5-31.5
				C479.8,238,493.9,252.1,493.9,269.4z M443.3,269.4c0,11.5,7.7,20.3,19.1,20.3c11.5,0,18.9-8.8,18.9-20.3
				c0-11.4-7.4-20.3-18.9-20.3C451.1,249.1,443.3,258.1,443.3,269.4z"/>
		</g>
		<path class="st15" d="M330.1,163.5c0,1.1-0.8,1.9-1.9,2c-10.4,0.7-17.5,7.5-17.5,17.5v28.3c0,1.1-0.9,2-2,2h-8.1c-1.1,0-2-0.9-2-2
			v-28.3c0-19,12-30.6,29.4-31.4c1.1-0.1,2.1,0.9,2.1,2V163.5z"/>
		<path class="st15" d="M348.6,130.7v22.2h14.5c1.1,0,2,0.9,2,2v6.3c0,1.1-0.9,2-2,2h-14.5v20c0,11.5,7.9,19.1,19.4,19.1v11.1
			c-17.3,0-31.5-12.8-31.5-30.3v-52.5c0-1.1,0.9-2,2-2h8.1C347.7,128.7,348.6,129.6,348.6,130.7z"/>
		<path class="st15" d="M290.4,179.9l0,31.8c0,1.1-0.9,2-2,2h-8.2c-1.1,0-2-0.9-2-2l0-9.2c-0.1,0.1-7.3,9.1-19.7,9.1h-0.1
			c-19.2,0-31.4-14.6-31.4-31.7c0-15.1,9.9-31.4,31.6-31.4c0.1,0,0.1,0,0.2,0C274.5,148.6,290.4,157.8,290.4,179.9z M239.6,179.9
			c0,11.5,8,20.6,19.4,20.6c11.5,0,19.9-9.1,19.9-20.6c0-11.4-8.4-20.6-19.9-20.6C247.5,159.4,239.6,168.6,239.6,179.9z"/>
		<path class="st23" d="M367.6,207.9c14.1,0.5,32.1-6.3,38.7-19.7c5.1-10.5,2.1-25.4-8.2-30.8c-8.9-4.7-17.2,1.5-17.9,11.1
			c-2,29.5,25.6,45,50.4,41.7"/>
	</g>
</g>
<g id="Capa_4">
</g>
<g id="Capa_2">
</g>
<g id="Capa_3">
</g>
</svg>
