<?xml version="1.0" encoding="utf-8"?>
<!-- Generator: Adobe Illustrator 27.2.0, SVG Export Plug-In . SVG Version: 6.00 Build 0)  -->
<svg version="1.1" xmlns="http://www.w3.org/2000/svg" xmlns:xlink="http://www.w3.org/1999/xlink" x="0px" y="0px"
	 viewBox="0 0 655.2 442.4" style="enable-background:new 0 0 655.2 442.4;" xml:space="preserve">
<style type="text/css">
	.st0{fill:#FFFFFF;}
	.st1{fill:#EF0A21;}
	.st2{fill:none;stroke:#000000;stroke-width:10;stroke-miterlimit:10;}
	.st3{fill:none;stroke:#000000;stroke-width:11;stroke-linecap:round;stroke-miterlimit:10;}
	.st4{fill:none;stroke:#000000;stroke-width:11;stroke-miterlimit:10;}
	.st5{fill:none;stroke:#000000;stroke-miterlimit:10;}
	.st6{fill:none;stroke:#000000;stroke-width:8;stroke-miterlimit:10;}
	.st7{fill:none;stroke:#000000;stroke-width:4;stroke-miterlimit:10;}
	.st8{fill:none;stroke:#000000;stroke-width:5;stroke-miterlimit:10;}
	.st9{fill:#FC7190;}
	.st10{fill:#F27F47;}
	.st11{fill:#FCDD51;}
	.st12{fill:#F4C3BD;}
	.st13{fill:#D3C4E0;}
	.st14{fill:#C9C93D;}
	.st15{fill:#F74674;}
	.st16{fill:none;stroke:#FFFFFF;stroke-width:11;stroke-miterlimit:10;}
	.st17{fill:none;stroke:#F4C3BD;stroke-width:11;stroke-miterlimit:10;}
	.st18{fill:none;stroke:#F27F47;stroke-width:11;stroke-miterlimit:10;}
	.st19{fill:none;stroke:#FCDD51;stroke-width:11;stroke-miterlimit:10;}
	.st20{fill:none;stroke:#FFFFFF;stroke-width:2;stroke-miterlimit:10;}
	.st21{fill:none;}
	.st22{fill:none;stroke:#C9C93D;stroke-width:11;stroke-miterlimit:10;}
	.st23{fill:none;stroke:#F74674;stroke-width:11;stroke-miterlimit:10;}
</style>
<g id="Capa_1">
	<rect x="5.5" y="-2" width="644.2" height="444.4"/>
	<g>
		<g>
			<path class="st0" d="M257.7,229.7h-1.5c-10.4,0.6-17.8,9.9-17.8,9.9s-6.5-10.2-19.9-10.2c-0.7,0-1.3,0-2.1,0.1
				c-10,0.7-22.8,7.4-22.8,30.6v29.4c0,1.1,0.9,2,2,2h7.4c1.1,0,2-0.9,2-2v-20.3c0-4.4,0-7.7,0-7.7c0-15.1,2.9-22.2,12.7-22.4
				c0.1,0,0.1,0,0.2,0c7.6,0,12.7,6.8,12.7,16.6c0,0,0,1.9,0,5.9c0,1,0.8,1.7,1.7,1.7l0,0c0.9,0,1.7,0.1,2.6,0c0.8,0,1.5,0,2.2,0
				c1.3,0,2.6,0,3.8,0c0.9,0,1.7-0.8,1.7-1.7c0-3.3,0-5.7,0.1-5.7c0-10.8,5.9-16.8,13-16.8c1,0,2.1,0.1,3,0.4
				c9.1,2.2,9.6,11.7,9.6,19.4v2.7c0,0,0,3.3,0,7.7v20.3c0,1.1,0.9,2,2,2h8.1c1.1,0,2-0.9,2-2v-24.4c0-5.2,0-9.2,0-9.2
				C280.7,242.8,272.8,229.7,257.7,229.7z"/>
			<path class="st0" d="M354.6,261.2v30.3h-12.1v-7.7c-0.1,0.1-7.3,9.1-19.7,9.1h-0.1c-19.2,0-31.4-14.6-31.4-31.7
				c0-15.1,9.9-31.4,31.6-31.4c0.1,0,0.1,0,0.2,0C338.8,229.8,354.6,239,354.6,261.2z M303.8,261.2c0,11.5,8,20.6,19.4,20.6
				c11.5,0,19.9-9.1,19.9-20.6c0-11.4-8.4-20.6-19.9-20.6C311.8,240.6,303.8,249.8,303.8,261.2z"/>
			<path class="st0" d="M410.4,291.3v-30c0-13.7-6.2-21.2-17.1-21.2c-10.7,0-16.3,7.4-16.3,21.3v30l-11.5-0.1v-33.4
				c0-15.4,10.5-28.3,29.1-28.3c7,0,28,1.5,28,28.3v33.4H410.4z"/>
			<path class="st0" d="M495.1,261.2c0,17.3-14.2,31.5-31.5,31.5c-17.3,0-31.5-14.2-31.5-31.5c0-17.3,14.2-31.5,31.5-31.5
				C481,229.7,495.1,243.9,495.1,261.2z M444.5,261.2c0,11.5,7.7,20.3,19.1,20.3c11.5,0,18.9-8.8,18.9-20.3
				c0-11.4-7.4-20.3-18.9-20.3C452.3,240.9,444.5,249.8,444.5,261.2z"/>
		</g>
		<path class="st0" d="M331.3,155.2c0,1.1-0.8,1.9-1.9,2c-10.4,0.7-17.5,7.5-17.5,17.5v28.3c0,1.1-0.9,2-2,2h-8.1c-1.1,0-2-0.9-2-2
			v-28.3c0-19,12-30.6,29.4-31.4c1.1-0.1,2.1,0.9,2.1,2V155.2z"/>
		<path class="st0" d="M349.8,122.4v22.2h14.5c1.1,0,2,0.9,2,2v6.3c0,1.1-0.9,2-2,2h-14.5v20c0,11.5,7.9,19.1,19.4,19.1v11.1
			c-17.3,0-31.5-12.8-31.5-30.3v-52.5c0-1.1,0.9-2,2-2h8.1C348.9,120.4,349.8,121.3,349.8,122.4z"/>
		<path class="st0" d="M291.6,171.7l0,31.8c0,1.1-0.9,2-2,2h-8.2c-1.1,0-2-0.9-2-2l0-9.2c-0.1,0.1-7.3,9.1-19.7,9.1h-0.1
			c-19.2,0-31.4-14.6-31.4-31.7c0-15.1,9.9-31.4,31.6-31.4c0.1,0,0.1,0,0.2,0C275.7,140.3,291.6,149.5,291.6,171.7z M240.8,171.7
			c0,11.5,8,20.6,19.4,20.6c11.5,0,19.9-9.1,19.9-20.6c0-11.4-8.4-20.6-19.9-20.6C248.7,151.1,240.8,160.3,240.8,171.7z"/>
		<path class="st16" d="M368.8,199.7c14.1,0.5,32.1-6.3,38.7-19.7c5.1-10.5,2.1-25.4-8.2-30.8c-8.9-4.7-17.2,1.5-17.9,11.1
			c-2,29.5,25.6,45,50.4,41.7"/>
	</g>
</g>
<g id="Capa_4">
</g>
<g id="Capa_2">
</g>
<g id="Capa_3">
</g>
</svg>
