<?xml version="1.0" encoding="utf-8"?>
<!-- Generator: Adobe Illustrator 27.2.0, SVG Export Plug-In . SVG Version: 6.00 Build 0)  -->
<svg version="1.1" xmlns="http://www.w3.org/2000/svg" xmlns:xlink="http://www.w3.org/1999/xlink" x="0px" y="0px"
	 viewBox="0 0 641.4 506.9" style="enable-background:new 0 0 641.4 506.9;" xml:space="preserve">
<style type="text/css">
	.st0{fill:#FFFFFF;}
	.st1{fill:#EF0A21;}
	.st2{fill:none;stroke:#000000;stroke-width:10;stroke-miterlimit:10;}
	.st3{fill:none;stroke:#000000;stroke-width:11;stroke-linecap:round;stroke-miterlimit:10;}
	.st4{fill:none;stroke:#000000;stroke-width:11;stroke-miterlimit:10;}
	.st5{fill:none;stroke:#000000;stroke-width:15;stroke-miterlimit:10;}
	.st6{fill:none;stroke:#000000;stroke-miterlimit:10;}
	.st7{fill:none;stroke:#000000;stroke-width:8;stroke-miterlimit:10;}
	.st8{fill:none;stroke:#000000;stroke-width:4;stroke-miterlimit:10;}
	.st9{fill:none;stroke:#000000;stroke-width:5;stroke-miterlimit:10;}
	.st10{fill:#FC7190;}
	.st11{fill:#F27F47;}
	.st12{fill:#FCDD51;}
	.st13{fill:#F4C3BD;}
	.st14{fill:#D3C4E0;}
	.st15{fill:#C9C93D;}
	.st16{fill:#F74674;}
	.st17{fill:none;stroke:#FFFFFF;stroke-width:11;stroke-miterlimit:10;}
	.st18{fill:none;stroke:#F4C3BD;stroke-width:11;stroke-miterlimit:10;}
	.st19{fill:none;stroke:#F4C3BD;stroke-width:18;stroke-miterlimit:10;}
	.st20{fill:none;stroke:#F27F47;stroke-width:11;stroke-miterlimit:10;}
	.st21{fill:none;stroke:#F27F47;stroke-width:15;stroke-miterlimit:10;}
	.st22{fill:none;stroke:#FCDD51;stroke-width:11;stroke-miterlimit:10;}
	.st23{fill:none;stroke:#FFFFFF;stroke-width:2;stroke-miterlimit:10;}
	.st24{fill:none;}
	.st25{fill:none;stroke:#FCDD51;stroke-width:18;stroke-miterlimit:10;}
	.st26{fill:none;stroke:#C9C93D;stroke-width:17;stroke-miterlimit:10;}
	.st27{fill:none;stroke:#F74674;stroke-width:11;stroke-miterlimit:10;}
	.st28{fill:none;stroke:#F74674;stroke-width:18;stroke-miterlimit:10;}
</style>
<g id="Capa_1">
	<g>
		<path class="st12" d="M185.1,274.5h-2.3c-16.3,0.9-27.9,15.5-27.9,15.5s-10.2-15.9-31.1-15.9c-1.1,0-2.1,0-3.2,0.2
			c-15.7,1.1-35.6,11.6-35.6,48v46c0,1.7,1.4,3.1,3.1,3.1h11.6c1.7,0,3.1-1.4,3.1-3.1v-31.8c0-6.8,0-12.1,0-12.1
			c0-23.7,4.6-34.7,19.9-35.1c0.2,0,0.2,0,0.4,0c11.9,0,19.9,10.6,19.9,26c0,0,0,3,0,9.2c0,1.5,1.2,2.7,2.7,2.7l0,0
			c1.3,0,2.7,0.1,4.1,0c1.2-0.1,2.3,0.1,3.5,0c2.1-0.1,4,0,6,0c1.5,0,2.7-1.2,2.7-2.7c0-5.2,0.1-8.9,0.1-8.9
			c0-16.9,9.3-26.4,20.3-26.4c1.5,0,3.2,0.2,4.7,0.6c14.2,3.4,15,18.4,15,30.3v4.2c0,0,0,5.1,0,12.1v31.8c0,1.7,1.4,3.1,3.1,3.1H218
			c1.7,0,3.1-1.4,3.1-3.1v-38.2c0-8.2,0-14.4,0-14.4C221.2,295,208.8,274.5,185.1,274.5z"/>
		<path class="st12" d="M337,323.8v47.4h-19v-12.1c-0.2,0.2-11.4,14.2-30.9,14.2h-0.2c-30.1,0-49.1-22.9-49.1-49.7
			c0-23.7,15.5-49.1,49.5-49.1c0.2,0,0.2,0,0.4,0C312.2,274.7,337,289.1,337,323.8z M257.4,323.8c0,18,12.5,32.2,30.3,32.2
			c18,0,31.1-14.2,31.1-32.2c0-17.8-13.1-32.2-31.1-32.2C269.9,291.6,257.4,306,257.4,323.8z"/>
		<path class="st12" d="M424.4,371v-47c0-21.4-9.7-33.2-26.7-33.2c-16.7,0-25.6,11.6-25.6,33.4v47l-18-0.2v-52.3
			c0-24.1,16.5-44.4,45.5-44.4c11,0,43.8,2.3,43.8,44.4V371H424.4z"/>
		<path class="st12" d="M557.1,323.8c0,27.1-22.2,49.3-49.3,49.3c-27.1,0-49.3-22.2-49.3-49.3c0-27.1,22.2-49.3,49.3-49.3
			C534.9,274.5,557.1,296.7,557.1,323.8z M477.8,323.8c0,18,12.1,31.9,30,31.9c18,0,29.6-13.8,29.6-31.9c0-17.8-11.6-31.9-29.6-31.9
			C490,292,477.8,306,477.8,323.8z"/>
	</g>
	<path class="st12" d="M300.5,157.8c0,1.6-1.3,3-2.9,3.1c-16.3,1.1-27.4,11.8-27.4,27.4v44.3c0,1.7-1.4,3.1-3.1,3.1h-12.7
		c-1.7,0-3.1-1.4-3.1-3.1v-44.3c0-29.7,18.8-47.9,46-49.2c1.8-0.1,3.3,1.3,3.3,3.1V157.8z"/>
	<path class="st12" d="M329.5,106.5v34.8h22.7c1.7,0,3.1,1.4,3.1,3.1v9.9c0,1.7-1.4,3.1-3.1,3.1h-22.7v31.3c0,18,12.3,30,30.3,30
		v17.4c-27.1,0-49.3-20.1-49.3-47.4v-82.2c0-1.7,1.4-3.1,3.1-3.1h12.7C328.1,103.3,329.5,104.8,329.5,106.5z"/>
	<path class="st12" d="M238.3,183.6l0,49.8c0,1.7-1.4,3.1-3.1,3.1h-12.8c-1.7,0-3.1-1.4-3.1-3.1l0-14.5
		c-0.2,0.2-11.4,14.2-30.9,14.2h-0.2c-30.1,0-49.1-22.9-49.1-49.7c0-23.7,15.5-49.1,49.5-49.1c0.2,0,0.2,0,0.4,0
		C213.5,134.5,238.3,148.9,238.3,183.6z M158.7,183.6c0,18,12.5,32.2,30.3,32.2c18,0,31.1-14.2,31.1-32.2
		c0-17.8-13.1-32.2-31.1-32.2C171.2,151.4,158.7,165.8,158.7,183.6z"/>
	<path class="st25" d="M359.3,227.5c22.1,0.7,50.3-9.8,60.7-30.9c8.1-16.4,3.3-39.8-12.8-48.3c-13.9-7.3-27,2.4-28,17.4
		c-3.2,46.2,40,70.5,78.9,65.4"/>
</g>
<g id="Capa_4">
</g>
<g id="Capa_2">
</g>
<g id="Capa_3">
</g>
</svg>
