<?xml version="1.0" encoding="utf-8"?>
<!-- Generator: Adobe Illustrator 27.2.0, SVG Export Plug-In . SVG Version: 6.00 Build 0)  -->
<svg version="1.1" xmlns="http://www.w3.org/2000/svg" xmlns:xlink="http://www.w3.org/1999/xlink" x="0px" y="0px"
	 viewBox="0 0 655.2 506.9" style="enable-background:new 0 0 655.2 506.9;" xml:space="preserve">
<style type="text/css">
	.st0{fill:#FFFFFF;}
	.st1{fill:#EF0A21;}
	.st2{fill:none;stroke:#000000;stroke-width:10;stroke-miterlimit:10;}
	.st3{fill:none;stroke:#000000;stroke-width:11;stroke-linecap:round;stroke-miterlimit:10;}
	.st4{fill:none;stroke:#000000;stroke-width:11;stroke-miterlimit:10;}
	.st5{fill:none;stroke:#000000;stroke-width:15;stroke-miterlimit:10;}
	.st6{fill:none;stroke:#000000;stroke-miterlimit:10;}
	.st7{fill:none;stroke:#000000;stroke-width:8;stroke-miterlimit:10;}
	.st8{fill:none;stroke:#000000;stroke-width:4;stroke-miterlimit:10;}
	.st9{fill:none;stroke:#000000;stroke-width:5;stroke-miterlimit:10;}
	.st10{fill:#FC7190;}
	.st11{fill:#F27F47;}
	.st12{fill:#FCDD51;}
	.st13{fill:#F4C3BD;}
	.st14{fill:#D3C4E0;}
	.st15{fill:#C9C93D;}
	.st16{fill:#F74674;}
	.st17{fill:none;stroke:#FFFFFF;stroke-width:11;stroke-miterlimit:10;}
	.st18{fill:none;stroke:#F4C3BD;stroke-width:11;stroke-miterlimit:10;}
	.st19{fill:none;stroke:#F4C3BD;stroke-width:18;stroke-miterlimit:10;}
	.st20{fill:none;stroke:#F27F47;stroke-width:11;stroke-miterlimit:10;}
	.st21{fill:none;stroke:#F27F47;stroke-width:15;stroke-miterlimit:10;}
	.st22{fill:none;stroke:#FCDD51;stroke-width:11;stroke-miterlimit:10;}
	.st23{fill:none;stroke:#FFFFFF;stroke-width:2;stroke-miterlimit:10;}
	.st24{fill:none;}
	.st25{fill:none;stroke:#FCDD51;stroke-width:18;stroke-miterlimit:10;}
	.st26{fill:none;stroke:#C9C93D;stroke-width:17;stroke-miterlimit:10;}
	.st27{fill:none;stroke:#F74674;stroke-width:11;stroke-miterlimit:10;}
	.st28{fill:none;stroke:#F74674;stroke-width:18;stroke-miterlimit:10;}
</style>
<g id="Capa_1">
	<g>
		<path class="st13" d="M189.9,267.1h-2.4c-17.1,1-29.2,16.3-29.2,16.3s-10.7-16.7-32.6-16.7c-1.2,0-2.2,0-3.4,0.2
			C105.9,268.1,85,279,85,317.2v48.2c0,1.8,1.5,3.3,3.3,3.3h12.1c1.8,0,3.3-1.5,3.3-3.3v-33.3c0-7.2,0-12.7,0-12.7
			c0-24.8,4.8-36.4,20.9-36.8c0.2,0,0.2,0,0.4,0c12.5,0,20.9,11.1,20.9,27.2c0,0,0,3.2,0,9.6c0,1.6,1.3,2.8,2.8,2.8l0,0
			c1.4,0,2.8,0.1,4.3,0c1.2-0.1,2.4,0.1,3.7,0c2.2-0.1,4.2,0,6.3,0c1.5,0,2.8-1.2,2.8-2.8c0-5.4,0.1-9.3,0.1-9.3
			c0-17.7,9.7-27.6,21.3-27.6c1.6,0,3.4,0.2,5,0.6c14.9,3.6,15.7,19.3,15.7,31.8v4.4c0,0,0,5.4,0,12.7v33.3c0,1.8,1.5,3.3,3.3,3.3
			h13.3c1.8,0,3.3-1.5,3.3-3.3v-40c0-8.5,0-15.1,0-15.1C227.7,288.6,214.7,267.1,189.9,267.1z"/>
		<path class="st13" d="M349,318.8v49.7h-19.9v-12.7c-0.2,0.2-11.9,14.9-32.4,14.9h-0.2c-31.6,0-51.5-24-51.5-52.1
			c0-24.8,16.3-51.5,51.9-51.5c0.2,0,0.2,0,0.4,0C323,267.3,349,282.4,349,318.8z M265.6,318.8c0,18.9,13.1,33.8,31.8,33.8
			c18.9,0,32.6-14.9,32.6-33.8c0-18.7-13.7-33.8-32.6-33.8C278.7,285,265.6,300.1,265.6,318.8z"/>
		<path class="st13" d="M440.6,368.2V319c0-22.4-10.1-34.8-28-34.8c-17.5,0-26.8,12.1-26.8,35v49.3l-18.9-0.2v-54.8
			c0-25.2,17.3-46.5,47.7-46.5c11.5,0,45.9,2.4,45.9,46.5v54.8H440.6z"/>
		<path class="st13" d="M579.7,318.8c0,28.4-23.2,51.7-51.7,51.7c-28.4,0-51.7-23.2-51.7-51.7s23.2-51.7,51.7-51.7
			C556.4,267.1,579.7,290.4,579.7,318.8z M496.6,318.8c0,18.9,12.7,33.4,31.4,33.4c18.9,0,31-14.5,31-33.4c0-18.7-12.1-33.4-31-33.4
			C509.3,285.4,496.6,300.1,496.6,318.8z"/>
	</g>
	<path class="st13" d="M310.8,144.8c0,1.7-1.3,3.1-3.1,3.3c-17,1.2-28.7,12.4-28.7,28.7v46.4c0,1.8-1.5,3.3-3.3,3.3h-13.3
		c-1.8,0-3.3-1.5-3.3-3.3v-46.4c0-31.1,19.7-50.2,48.2-51.6c1.9-0.1,3.5,1.4,3.5,3.3V144.8z"/>
	<path class="st13" d="M341.2,91.1v36.5h23.7c1.8,0,3.3,1.5,3.3,3.3v10.3c0,1.8-1.5,3.3-3.3,3.3h-23.7v32.8
		c0,18.9,12.9,31.4,31.8,31.4v18.3c-28.4,0-51.7-21.1-51.7-49.7V91.1c0-1.8,1.5-3.3,3.3-3.3h13.3C339.7,87.8,341.2,89.2,341.2,91.1z
		"/>
	<path class="st13" d="M245.6,171.9l0.1,52.1c0,1.8-1.5,3.3-3.3,3.3H229c-1.8,0-3.3-1.5-3.3-3.3l0-15.2
		c-0.2,0.2-11.9,14.9-32.4,14.9h-0.2c-31.6,0-51.5-24-51.5-52.1c0-24.8,16.3-51.5,51.9-51.5c0.2,0,0.2,0,0.4,0
		C219.6,120.4,245.6,135.5,245.6,171.9z M162.2,171.9c0,18.9,13.1,33.8,31.8,33.8c18.9,0,32.6-14.9,32.6-33.8
		c0-18.7-13.7-33.8-32.6-33.8C175.3,138.1,162.2,153.2,162.2,171.9z"/>
	<path class="st19" d="M372.4,217.8c23.2,0.8,52.7-10.3,63.6-32.4c8.4-17.2,3.4-41.7-13.4-50.6c-14.6-7.7-28.3,2.5-29.3,18.3
		c-3.3,48.4,42,73.9,82.6,68.5"/>
</g>
<g id="Capa_4">
</g>
<g id="Capa_2">
</g>
<g id="Capa_3">
</g>
</svg>
