<?xml version="1.0" encoding="utf-8"?>
<!-- Generator: Adobe Illustrator 27.2.0, SVG Export Plug-In . SVG Version: 6.00 Build 0)  -->
<svg version="1.1" xmlns="http://www.w3.org/2000/svg" xmlns:xlink="http://www.w3.org/1999/xlink" x="0px" y="0px"
	 viewBox="0 0 657 442.4" style="enable-background:new 0 0 657 442.4;" xml:space="preserve">
<style type="text/css">
	.st0{fill:#FFFFFF;}
	.st1{fill:#EF0A21;}
	.st2{fill:none;stroke:#000000;stroke-width:10;stroke-miterlimit:10;}
	.st3{fill:none;stroke:#000000;stroke-width:11;stroke-linecap:round;stroke-miterlimit:10;}
	.st4{fill:none;stroke:#000000;stroke-width:11;stroke-miterlimit:10;}
	.st5{fill:none;stroke:#000000;stroke-width:15;stroke-miterlimit:10;}
	.st6{fill:none;stroke:#000000;stroke-miterlimit:10;}
	.st7{fill:none;stroke:#000000;stroke-width:8;stroke-miterlimit:10;}
	.st8{fill:none;stroke:#000000;stroke-width:4;stroke-miterlimit:10;}
	.st9{fill:none;stroke:#000000;stroke-width:5;stroke-miterlimit:10;}
	.st10{fill:#FC7190;}
	.st11{fill:#F27F47;}
	.st12{fill:#FCDD51;}
	.st13{fill:#F4C3BD;}
	.st14{fill:#D3C4E0;}
	.st15{fill:#C9C93D;}
	.st16{fill:#F74674;}
	.st17{fill:none;stroke:#FFFFFF;stroke-width:11;stroke-miterlimit:10;}
	.st18{fill:none;stroke:#F4C3BD;stroke-width:11;stroke-miterlimit:10;}
	.st19{fill:none;stroke:#F4C3BD;stroke-width:18;stroke-miterlimit:10;}
	.st20{fill:none;stroke:#F27F47;stroke-width:11;stroke-miterlimit:10;}
	.st21{fill:none;stroke:#F27F47;stroke-width:15;stroke-miterlimit:10;}
	.st22{fill:none;stroke:#FCDD51;stroke-width:11;stroke-miterlimit:10;}
	.st23{fill:none;stroke:#FFFFFF;stroke-width:2;stroke-miterlimit:10;}
	.st24{fill:none;}
	.st25{fill:none;stroke:#FCDD51;stroke-width:18;stroke-miterlimit:10;}
	.st26{fill:none;stroke:#C9C93D;stroke-width:17;stroke-miterlimit:10;}
	.st27{fill:none;stroke:#F74674;stroke-width:11;stroke-miterlimit:10;}
	.st28{fill:none;stroke:#F74674;stroke-width:18;stroke-miterlimit:10;}
</style>
<g id="Capa_1">
	<g>
		<path class="st16" d="M182,229.2h-2.4c-16.9,1-28.9,16.1-28.9,16.1s-10.6-16.5-32.2-16.5c-1.2,0-2.2,0-3.3,0.2
			c-16.3,1.2-37,12-37,49.7v47.7c0,1.8,1.5,3.2,3.2,3.2h12c1.8,0,3.2-1.5,3.2-3.2v-32.9c0-7.1,0-12.6,0-12.6
			c0-24.6,4.7-36,20.6-36.4c0.2,0,0.2,0,0.4,0c12.4,0,20.6,11,20.6,26.9c0,0,0,3.2,0,9.5c0,1.5,1.3,2.8,2.8,2.8l0,0
			c1.4,0,2.8,0.1,4.3,0c1.2-0.1,2.4,0.1,3.6,0c2.2-0.1,4.2,0,6.2,0c1.5,0,2.8-1.2,2.8-2.8c0-5.4,0.1-9.2,0.1-9.2
			c0-17.5,9.6-27.3,21-27.3c1.6,0,3.3,0.2,4.9,0.6c14.7,3.5,15.5,19.1,15.5,31.5v4.3c0,0,0,5.3,0,12.6v32.9c0,1.8,1.5,3.2,3.2,3.2
			h13.2c1.8,0,3.2-1.5,3.2-3.2v-39.6c0-8.5,0-14.9,0-14.9C219.3,250.4,206.6,229.2,182,229.2z"/>
		<path class="st16" d="M339.4,280.3v49.1h-19.7v-12.6c-0.2,0.2-11.8,14.7-32,14.7h-0.2c-31.3,0-50.9-23.8-50.9-51.5
			c0-24.6,16.1-50.9,51.3-50.9c0.2,0,0.2,0,0.4,0C313.7,229.4,339.4,244.3,339.4,280.3z M256.9,280.3c0,18.7,13,33.4,31.5,33.4
			c18.7,0,32.2-14.7,32.2-33.4c0-18.5-13.6-33.4-32.2-33.4C269.8,246.9,256.9,261.8,256.9,280.3z"/>
		<path class="st16" d="M430,329.2v-48.7c0-22.2-10-34.4-27.7-34.4c-17.3,0-26.5,12-26.5,34.6v48.7l-18.7-0.2V275
			c0-25,17.1-46,47.2-46c11.4,0,45.4,2.4,45.4,46v54.3H430z"/>
		<path class="st16" d="M567.6,280.3c0,28.1-23,51.1-51.1,51.1c-28.1,0-51.1-23-51.1-51.1s23-51.1,51.1-51.1
			C544.6,229.2,567.6,252.2,567.6,280.3z M485.4,280.3c0,18.7,12.6,33,31.1,33c18.7,0,30.7-14.4,30.7-33c0-18.5-12-33-30.7-33
			C498,247.2,485.4,261.8,485.4,280.3z"/>
	</g>
	<path class="st16" d="M301.6,108.2c0,1.7-1.3,3.1-3,3.2c-16.8,1.2-28.4,12.2-28.4,28.4v45.9c0,1.8-1.5,3.2-3.2,3.2h-13.2
		c-1.8,0-3.2-1.5-3.2-3.2v-45.9c0-30.8,19.4-49.6,47.7-51c1.9-0.1,3.4,1.4,3.4,3.3V108.2z"/>
	<path class="st16" d="M331.7,55V91h23.5c1.8,0,3.2,1.5,3.2,3.2v10.2c0,1.8-1.5,3.2-3.2,3.2h-23.5v32.4c0,18.7,12.8,31.1,31.5,31.1
		v18.1c-28.1,0-51.1-20.8-51.1-49.1V55c0-1.8,1.5-3.2,3.2-3.2h13.2C330.2,51.7,331.7,53.2,331.7,55z"/>
	<path class="st16" d="M237.1,134.9l0.1,51.6c0,1.8-1.5,3.3-3.2,3.3h-13.2c-1.8,0-3.3-1.5-3.2-3.3l0-15c-0.2,0.2-11.8,14.7-32,14.7
		h-0.2c-31.3,0-50.9-23.8-50.9-51.5c0-24.6,16.1-50.9,51.3-50.9c0.2,0,0.2,0,0.4,0C211.3,84,237.1,99,237.1,134.9z M154.5,134.9
		c0,18.7,13,33.4,31.5,33.4c18.7,0,32.2-14.7,32.2-33.4c0-18.5-13.6-33.4-32.2-33.4C167.5,101.5,154.5,116.5,154.5,134.9z"/>
	<path class="st28" d="M362.5,180.4c22.9,0.7,52.2-10.2,62.9-32c8.4-17,3.4-41.3-13.3-50.1c-14.4-7.6-28,2.4-29,18.1
		c-3.3,47.9,41.5,73.1,81.8,67.8"/>
</g>
<g id="Capa_4">
</g>
<g id="Capa_2">
</g>
<g id="Capa_3">
</g>
</svg>
