<?xml version="1.0" encoding="utf-8"?>
<!-- Generator: Adobe Illustrator 27.2.0, SVG Export Plug-In . SVG Version: 6.00 Build 0)  -->
<svg version="1.1" xmlns="http://www.w3.org/2000/svg" xmlns:xlink="http://www.w3.org/1999/xlink" x="0px" y="0px"
	 viewBox="0 0 641.4 442.4" style="enable-background:new 0 0 641.4 442.4;" xml:space="preserve">
<style type="text/css">
	.st0{fill:#FFFFFF;}
	.st1{fill:#EF0A21;}
	.st2{fill:none;stroke:#000000;stroke-width:10;stroke-miterlimit:10;}
	.st3{fill:none;stroke:#000000;stroke-width:11;stroke-linecap:round;stroke-miterlimit:10;}
	.st4{fill:none;stroke:#000000;stroke-width:11;stroke-miterlimit:10;}
	.st5{fill:none;stroke:#000000;stroke-width:15;stroke-miterlimit:10;}
	.st6{fill:none;stroke:#000000;stroke-miterlimit:10;}
	.st7{fill:none;stroke:#000000;stroke-width:8;stroke-miterlimit:10;}
	.st8{fill:none;stroke:#000000;stroke-width:4;stroke-miterlimit:10;}
	.st9{fill:none;stroke:#000000;stroke-width:5;stroke-miterlimit:10;}
	.st10{fill:#FC7190;}
	.st11{fill:#F27F47;}
	.st12{fill:#FCDD51;}
	.st13{fill:#F4C3BD;}
	.st14{fill:#D3C4E0;}
	.st15{fill:#C9C93D;}
	.st16{fill:#F74674;}
	.st17{fill:none;stroke:#FFFFFF;stroke-width:11;stroke-miterlimit:10;}
	.st18{fill:none;stroke:#F4C3BD;stroke-width:11;stroke-miterlimit:10;}
	.st19{fill:none;stroke:#F4C3BD;stroke-width:18;stroke-miterlimit:10;}
	.st20{fill:none;stroke:#F27F47;stroke-width:11;stroke-miterlimit:10;}
	.st21{fill:none;stroke:#F27F47;stroke-width:15;stroke-miterlimit:10;}
	.st22{fill:none;stroke:#FCDD51;stroke-width:11;stroke-miterlimit:10;}
	.st23{fill:none;stroke:#FFFFFF;stroke-width:2;stroke-miterlimit:10;}
	.st24{fill:none;}
	.st25{fill:none;stroke:#FCDD51;stroke-width:18;stroke-miterlimit:10;}
	.st26{fill:none;stroke:#C9C93D;stroke-width:17;stroke-miterlimit:10;}
	.st27{fill:none;stroke:#F74674;stroke-width:11;stroke-miterlimit:10;}
	.st28{fill:none;stroke:#F74674;stroke-width:18;stroke-miterlimit:10;}
</style>
<g id="Capa_1">
	<g>
		<path d="M217.8,246.1h-2c-14.1,0.8-24.1,13.5-24.1,13.5s-8.9-13.8-26.9-13.8c-1,0-1.8,0-2.8,0.2c-13.6,1-30.9,10-30.9,41.6v39.8
			c0,1.5,1.2,2.7,2.7,2.7h10c1.5,0,2.7-1.2,2.7-2.7v-27.5c0-5.9,0-10.5,0-10.5c0-20.5,3.9-30.1,17.2-30.4c0.2,0,0.2,0,0.3,0
			c10.3,0,17.2,9.2,17.2,22.5c0,0,0,2.6,0,8c0,1.3,1.1,2.3,2.4,2.3l0,0c1.2,0,2.3,0.1,3.6,0c1,0,2,0,3,0c1.8-0.1,3.5,0,5.2,0
			c1.3,0,2.3-1,2.3-2.3c0-4.5,0-7.7,0.1-7.7c0-14.6,8-22.8,17.6-22.8c1.3,0,2.8,0.2,4.1,0.5c12.3,3,13,15.9,13,26.3v3.6
			c0,0,0,4.4,0,10.5v27.5c0,1.5,1.2,2.7,2.7,2.7h11c1.5,0,2.7-1.2,2.7-2.7v-33.1c0-7.1,0-12.5,0-12.5
			C249.1,263.8,238.4,246.1,217.8,246.1z"/>
		<path d="M349.4,288.8v41.1H333v-10.5c-0.2,0.2-9.9,12.3-26.8,12.3H306c-26.1,0-42.5-19.9-42.5-43c0-20.5,13.5-42.5,42.9-42.5
			c0.2,0,0.2,0,0.3,0C327.9,246.2,349.4,258.7,349.4,288.8z M280.4,288.8c0,15.6,10.8,27.9,26.3,27.9c15.6,0,26.9-12.3,26.9-27.9
			c0-15.4-11.3-27.9-26.9-27.9C291.3,260.9,280.4,273.3,280.4,288.8z"/>
		<path d="M425.1,329.7v-40.7c0-18.6-8.4-28.7-23.2-28.7c-14.5,0-22.2,10-22.2,28.9v40.7l-15.6-0.2v-45.3
			c0-20.9,14.3-38.4,39.4-38.4c9.5,0,37.9,2,37.9,38.4v45.3H425.1z"/>
		<path d="M540.1,288.8c0,23.5-19.2,42.7-42.7,42.7s-42.7-19.2-42.7-42.7c0-23.5,19.2-42.7,42.7-42.7S540.1,265.3,540.1,288.8z
			 M471.4,288.8c0,15.6,10.5,27.6,26,27.6c15.6,0,25.6-12,25.6-27.6c0-15.4-10-27.6-25.6-27.6C482,261.2,471.4,273.3,471.4,288.8z"
			/>
	</g>
	<path d="M317.8,145c0,1.4-1.1,2.6-2.5,2.7c-14.1,1-23.7,10.2-23.7,23.7v38.4c0,1.5-1.2,2.7-2.7,2.7h-11c-1.5,0-2.7-1.2-2.7-2.7
		v-38.4c0-25.7,16.3-41.5,39.8-42.6c1.6-0.1,2.9,1.2,2.9,2.7V145z"/>
	<path d="M342.9,100.5v30.1h19.6c1.5,0,2.7,1.2,2.7,2.7v8.5c0,1.5-1.2,2.7-2.7,2.7h-19.6v27.1c0,15.6,10.7,26,26.3,26v15.1
		c-23.5,0-42.7-17.4-42.7-41.1v-71.2c0-1.5,1.2-2.7,2.7-2.7h11C341.7,97.8,342.9,99,342.9,100.5z"/>
	<path d="M263.9,167.3l0,43.1c0,1.5-1.2,2.7-2.7,2.7l-11.1,0c-1.5,0-2.7-1.2-2.7-2.7l0-12.5c-0.2,0.2-9.9,12.3-26.8,12.3h-0.2
		c-26.1,0-42.5-19.9-42.5-43c0-20.5,13.5-42.5,42.9-42.5c0.2,0,0.2,0,0.3,0C242.4,124.8,263.9,137.3,263.9,167.3z M194.9,167.3
		c0,15.6,10.8,27.9,26.3,27.9c15.6,0,26.9-12.3,26.9-27.9c0-15.4-11.3-27.9-26.9-27.9C205.7,139.4,194.9,151.9,194.9,167.3z"/>
	<path class="st5" d="M368.7,205.3c19.2,0.6,43.6-8.5,52.6-26.8c7-14.2,2.8-34.5-11.1-41.8c-12.1-6.4-23.4,2-24.3,15.1
		c-2.7,40.1,34.7,61.1,68.3,56.6"/>
</g>
<g id="Capa_4">
</g>
<g id="Capa_2">
</g>
<g id="Capa_3">
</g>
</svg>
