<?xml version="1.0" encoding="utf-8"?>
<!-- Generator: Adobe Illustrator 27.2.0, SVG Export Plug-In . SVG Version: 6.00 Build 0)  -->
<svg version="1.1" xmlns="http://www.w3.org/2000/svg" xmlns:xlink="http://www.w3.org/1999/xlink" x="0px" y="0px"
	 viewBox="0 0 631.8 506.9" style="enable-background:new 0 0 631.8 506.9;" xml:space="preserve">
<style type="text/css">
	.st0{fill:#FFFFFF;}
	.st1{fill:#EF0A21;}
	.st2{fill:none;stroke:#000000;stroke-width:10;stroke-miterlimit:10;}
	.st3{fill:none;stroke:#000000;stroke-width:11;stroke-linecap:round;stroke-miterlimit:10;}
	.st4{fill:none;stroke:#000000;stroke-width:11;stroke-miterlimit:10;}
	.st5{fill:none;stroke:#000000;stroke-width:15;stroke-miterlimit:10;}
	.st6{fill:none;stroke:#000000;stroke-miterlimit:10;}
	.st7{fill:none;stroke:#000000;stroke-width:8;stroke-miterlimit:10;}
	.st8{fill:none;stroke:#000000;stroke-width:4;stroke-miterlimit:10;}
	.st9{fill:none;stroke:#000000;stroke-width:5;stroke-miterlimit:10;}
	.st10{fill:#FC7190;}
	.st11{fill:#F27F47;}
	.st12{fill:#FCDD51;}
	.st13{fill:#F4C3BD;}
	.st14{fill:#D3C4E0;}
	.st15{fill:#C9C93D;}
	.st16{fill:#F74674;}
	.st17{fill:none;stroke:#FFFFFF;stroke-width:11;stroke-miterlimit:10;}
	.st18{fill:none;stroke:#F4C3BD;stroke-width:11;stroke-miterlimit:10;}
	.st19{fill:none;stroke:#F4C3BD;stroke-width:18;stroke-miterlimit:10;}
	.st20{fill:none;stroke:#F27F47;stroke-width:11;stroke-miterlimit:10;}
	.st21{fill:none;stroke:#F27F47;stroke-width:15;stroke-miterlimit:10;}
	.st22{fill:none;stroke:#FCDD51;stroke-width:11;stroke-miterlimit:10;}
	.st23{fill:none;stroke:#FFFFFF;stroke-width:2;stroke-miterlimit:10;}
	.st24{fill:none;}
	.st25{fill:none;stroke:#FCDD51;stroke-width:18;stroke-miterlimit:10;}
	.st26{fill:none;stroke:#C9C93D;stroke-width:17;stroke-miterlimit:10;}
	.st27{fill:none;stroke:#F74674;stroke-width:11;stroke-miterlimit:10;}
	.st28{fill:none;stroke:#F74674;stroke-width:18;stroke-miterlimit:10;}
</style>
<g id="Capa_1">
	<g>
		<path class="st15" d="M166.8,268h-2.3c-16.6,1-28.4,15.9-28.4,15.9s-10.4-16.3-31.7-16.3c-1.2,0-2.1,0-3.3,0.2
			c-16.1,1.2-36.4,11.8-36.4,49v46.9c0,1.8,1.4,3.2,3.2,3.2h11.8c1.8,0,3.2-1.4,3.2-3.2v-32.4c0-7,0-12.4,0-12.4
			c0-24.2,4.6-35.4,20.3-35.8c0.2,0,0.2,0,0.4,0c12.2,0,20.3,10.8,20.3,26.5c0,0,0,3.1,0,9.4c0,1.5,1.2,2.8,2.8,2.7l0,0
			c1.4,0,2.8,0.1,4.2,0c1.2-0.1,2.4,0.1,3.6,0c2.1-0.1,4.1,0,6.1,0c1.5,0,2.7-1.2,2.7-2.7c0-5.3,0.1-9,0.1-9
			c0-17.2,9.5-26.9,20.7-26.9c1.5,0,3.3,0.2,4.8,0.6c14.5,3.5,15.3,18.8,15.3,31v4.3c0,0,0,5.2,0,12.4v32.4c0,1.8,1.4,3.2,3.2,3.2
			h13c1.8,0,3.2-1.4,3.2-3.2v-39c0-8.3,0-14.7,0-14.7C203.5,288.9,190.9,268,166.8,268z"/>
		<path class="st15" d="M321.7,318.3v48.4h-19.3v-12.4c-0.2,0.2-11.6,14.5-31.5,14.5h-0.2c-30.8,0-50.1-23.4-50.1-50.7
			c0-24.2,15.9-50.1,50.5-50.1c0.2,0,0.2,0,0.4,0C296.4,268.2,321.7,282.9,321.7,318.3z M240.5,318.3c0,18.4,12.8,32.9,31,32.9
			c18.4,0,31.7-14.5,31.7-32.9c0-18.2-13.4-32.9-31.7-32.9C253.2,285.4,240.5,300.1,240.5,318.3z"/>
		<path class="st15" d="M410.9,366.5v-48c0-21.9-9.9-33.9-27.3-33.9c-17,0-26.1,11.8-26.1,34.1v48l-18.4-0.2v-53.4
			c0-24.6,16.8-45.3,46.4-45.3c11.2,0,44.7,2.3,44.7,45.3v53.4H410.9z"/>
		<path class="st15" d="M546.3,318.3c0,27.7-22.6,50.3-50.3,50.3c-27.7,0-50.3-22.6-50.3-50.3c0-27.7,22.6-50.3,50.3-50.3
			C523.7,268,546.3,290.6,546.3,318.3z M465.5,318.3c0,18.4,12.4,32.5,30.6,32.5c18.4,0,30.2-14.1,30.2-32.5
			c0-18.2-11.8-32.5-30.2-32.5C477.9,285.8,465.5,300.1,465.5,318.3z"/>
	</g>
	<path class="st15" d="M284.5,148.9c0,1.7-1.3,3.1-3,3.2c-16.6,1.2-28,12.1-28,28v45.2c0,1.8-1.4,3.2-3.2,3.2h-13
		c-1.8,0-3.2-1.4-3.2-3.2V180c0-30.3,19.1-48.8,46.9-50.2c1.8-0.1,3.4,1.4,3.4,3.2V148.9z"/>
	<path class="st15" d="M314.1,96.5V132h23.1c1.8,0,3.2,1.4,3.2,3.2v10.1c0,1.8-1.4,3.2-3.2,3.2h-23.1v31.9c0,18.4,12.6,30.6,31,30.6
		v17.8c-27.7,0-50.3-20.5-50.3-48.4V96.5c0-1.8,1.4-3.2,3.2-3.2h13C312.7,93.3,314.1,94.8,314.1,96.5z"/>
	<path class="st15" d="M221,175.2L221,226c0,1.8-1.4,3.2-3.2,3.2h-13c-1.8,0-3.2-1.4-3.2-3.2l0-14.8c-0.2,0.2-11.6,14.5-31.5,14.5
		h-0.2c-30.8,0-50.1-23.4-50.1-50.7c0-24.2,15.9-50.1,50.5-50.1c0.2,0,0.2,0,0.4,0C195.7,125.1,221,139.8,221,175.2z M139.7,175.2
		c0,18.4,12.8,32.9,31,32.9c18.4,0,31.7-14.5,31.7-32.9c0-18.2-13.4-32.9-31.7-32.9C152.5,142.3,139.7,157,139.7,175.2z"/>
	<path class="st26" d="M344.5,220c22.6,0.7,51.3-10,61.9-31.5c8.2-16.7,3.3-40.6-13.1-49.3c-14.2-7.5-27.5,2.4-28.6,17.8
		c-3.2,47.2,40.9,72,80.5,66.7"/>
</g>
<g id="Capa_4">
</g>
<g id="Capa_2">
</g>
<g id="Capa_3">
</g>
</svg>
