<?xml version="1.0" encoding="utf-8"?>
<!-- Generator: Adobe Illustrator 27.2.0, SVG Export Plug-In . SVG Version: 6.00 Build 0)  -->
<svg version="1.1" xmlns="http://www.w3.org/2000/svg" xmlns:xlink="http://www.w3.org/1999/xlink" x="0px" y="0px"
	 viewBox="0 0 631.8 442.4" style="enable-background:new 0 0 631.8 442.4;" xml:space="preserve">
<style type="text/css">
	.st0{fill:#FFFFFF;}
	.st1{fill:#EF0A21;}
	.st2{fill:none;stroke:#000000;stroke-width:10;stroke-miterlimit:10;}
	.st3{fill:none;stroke:#000000;stroke-width:11;stroke-linecap:round;stroke-miterlimit:10;}
	.st4{fill:none;stroke:#000000;stroke-width:11;stroke-miterlimit:10;}
	.st5{fill:none;stroke:#000000;stroke-width:15;stroke-miterlimit:10;}
	.st6{fill:none;stroke:#000000;stroke-miterlimit:10;}
	.st7{fill:none;stroke:#000000;stroke-width:8;stroke-miterlimit:10;}
	.st8{fill:none;stroke:#000000;stroke-width:4;stroke-miterlimit:10;}
	.st9{fill:none;stroke:#000000;stroke-width:5;stroke-miterlimit:10;}
	.st10{fill:#FC7190;}
	.st11{fill:#F27F47;}
	.st12{fill:#FCDD51;}
	.st13{fill:#F4C3BD;}
	.st14{fill:#D3C4E0;}
	.st15{fill:#C9C93D;}
	.st16{fill:#F74674;}
	.st17{fill:none;stroke:#FFFFFF;stroke-width:11;stroke-miterlimit:10;}
	.st18{fill:none;stroke:#F4C3BD;stroke-width:11;stroke-miterlimit:10;}
	.st19{fill:none;stroke:#F4C3BD;stroke-width:18;stroke-miterlimit:10;}
	.st20{fill:none;stroke:#F27F47;stroke-width:11;stroke-miterlimit:10;}
	.st21{fill:none;stroke:#F27F47;stroke-width:15;stroke-miterlimit:10;}
	.st22{fill:none;stroke:#FCDD51;stroke-width:11;stroke-miterlimit:10;}
	.st23{fill:none;stroke:#FFFFFF;stroke-width:2;stroke-miterlimit:10;}
	.st24{fill:none;}
	.st25{fill:none;stroke:#FCDD51;stroke-width:18;stroke-miterlimit:10;}
	.st26{fill:none;stroke:#C9C93D;stroke-width:17;stroke-miterlimit:10;}
	.st27{fill:none;stroke:#F74674;stroke-width:11;stroke-miterlimit:10;}
	.st28{fill:none;stroke:#F74674;stroke-width:18;stroke-miterlimit:10;}
</style>
<g id="Capa_1">
	<g>
		<path class="st11" d="M188.6,241.7h-2.2c-15.6,0.9-26.6,14.9-26.6,14.9s-9.8-15.2-29.7-15.2c-1.1,0-2,0-3.1,0.2
			c-15,1.1-34.1,11.1-34.1,45.8v43.9c0,1.7,1.3,3,3,3h11c1.7,0,3-1.3,3-3v-30.3c0-6.5,0-11.6,0-11.6c0-22.6,4.3-33.2,19-33.5
			c0.2,0,0.2,0,0.4,0c11.4,0,19,10.1,19,24.8c0,0,0,2.9,0,8.8c0,1.4,1.2,2.6,2.6,2.6l0,0c1.3,0,2.6,0.1,3.9,0c1.1-0.1,2.2,0.1,3.3,0
			c2-0.1,3.8,0,5.7,0c1.4,0,2.6-1.1,2.6-2.5c0-4.9,0.1-8.5,0.1-8.5c0-16.1,8.9-25.2,19.4-25.2c1.4,0,3.1,0.2,4.5,0.5
			c13.6,3.3,14.3,17.6,14.3,29v4c0,0,0,4.9,0,11.6v30.3c0,1.7,1.3,3,3,3h12.1c1.7,0,3-1.3,3-3v-36.5c0-7.8,0-13.8,0-13.8
			C223.1,261.2,211.3,241.7,188.6,241.7z"/>
		<path class="st11" d="M333.8,288.8v45.3h-18.1v-11.6c-0.2,0.2-10.9,13.6-29.5,13.6h-0.2c-28.8,0-46.9-21.9-46.9-47.5
			c0-22.6,14.9-46.9,47.3-46.9c0.2,0,0.2,0,0.4,0C310,241.8,333.8,255.6,333.8,288.8z M257.7,288.8c0,17.2,12,30.8,29,30.8
			c17.2,0,29.7-13.6,29.7-30.8c0-17-12.5-30.8-29.7-30.8C269.6,258,257.7,271.7,257.7,288.8z"/>
		<path class="st11" d="M417.3,333.9v-44.9c0-20.5-9.2-31.7-25.5-31.7c-15.9,0-24.5,11.1-24.5,31.9v44.9l-17.2-0.2v-50
			c0-23,15.8-42.4,43.5-42.4c10.5,0,41.9,2.2,41.9,42.4v50H417.3z"/>
		<path class="st11" d="M544.1,288.8c0,25.9-21.2,47.1-47.1,47.1s-47.1-21.2-47.1-47.1c0-25.9,21.2-47.1,47.1-47.1
			S544.1,262.9,544.1,288.8z M468.4,288.8c0,17.2,11.6,30.4,28.6,30.4c17.2,0,28.3-13.2,28.3-30.4c0-17-11.1-30.4-28.3-30.4
			C480,258.3,468.4,271.7,468.4,288.8z"/>
	</g>
	<path class="st11" d="M298.9,130.1c0,1.6-1.2,2.9-2.8,3c-15.5,1.1-26.2,11.3-26.2,26.2v42.3c0,1.7-1.3,3-3,3h-12.1
		c-1.7,0-3-1.3-3-3v-42.3c0-28.4,17.9-45.7,44-47c1.7-0.1,3.2,1.3,3.2,3V130.1z"/>
	<path class="st11" d="M326.6,81.1v33.2h21.6c1.7,0,3,1.3,3,3v9.4c0,1.7-1.3,3-3,3h-21.6v29.9c0,17.2,11.8,28.6,29,28.6v16.7
		c-25.9,0-47.1-19.2-47.1-45.3V81.1c0-1.7,1.3-3,3-3h12.1C325.3,78.1,326.6,79.4,326.6,81.1z"/>
	<path class="st11" d="M239.4,154.8l0,47.5c0,1.7-1.3,3-3,3l-12.2,0c-1.7,0-3-1.3-3-3l0-13.8c-0.2,0.2-10.9,13.6-29.5,13.6h-0.2
		c-28.8,0-46.9-21.9-46.9-47.5c0-22.6,14.9-46.9,47.3-46.9c0.2,0,0.2,0,0.4,0C215.7,107.9,239.4,121.6,239.4,154.8z M163.3,154.8
		c0,17.2,12,30.8,29,30.8c17.2,0,29.7-13.6,29.7-30.8c0-17-12.5-30.8-29.7-30.8C175.3,124,163.3,137.8,163.3,154.8z"/>
	<path class="st21" d="M355.1,196.7c21.1,0.7,48.1-9.4,58-29.5c7.7-15.6,3.1-38-12.2-46.1c-13.3-7-25.8,2.3-26.8,16.7
		c-3,44.2,38.3,67.4,75.4,62.5"/>
</g>
<g id="Capa_4">
</g>
<g id="Capa_2">
</g>
<g id="Capa_3">
</g>
</svg>
