<?xml version="1.0" encoding="utf-8"?>
<!-- Generator: Adobe Illustrator 27.2.0, SVG Export Plug-In . SVG Version: 6.00 Build 0)  -->
<svg version="1.1" id="Capa_1" xmlns="http://www.w3.org/2000/svg" xmlns:xlink="http://www.w3.org/1999/xlink" x="0px" y="0px"
	 viewBox="0 0 1942 227" style="enable-background:new 0 0 1942 227;" xml:space="preserve">
<style type="text/css">
	.st0{fill:#FC7190;}
	.st1{fill:none;stroke:#FCDD51;stroke-width:12;stroke-miterlimit:10;}
	.st2{fill:#D3C4E0;}
	.st3{fill:none;stroke:#C9C93D;stroke-width:12;stroke-miterlimit:10;}
	.st4{fill:#F4C3BD;}
	.st5{fill:#FCDD51;}
	.st6{fill:none;stroke:#FCDD51;stroke-width:11;stroke-miterlimit:10;}
	.st7{fill:#C9C93D;}
	.st8{fill:#A3BAD7;}
	.st9{fill:#B3DAAB;}
	.st10{fill:#F27F47;}
	.st11{fill:#F6CAB7;}
	.st12{fill:none;stroke:#FFFFFF;stroke-width:40;stroke-miterlimit:10;}
	.st13{fill:#FFFFFF;}
	.st14{fill:none;stroke:#000000;stroke-miterlimit:10;}
	.st15{fill:#FFFFFF;stroke:#000000;stroke-miterlimit:10;}
	.st16{fill:#E6E6E6;stroke:#000000;stroke-miterlimit:10;}
	.st17{fill:#E7B566;}
	.st18{fill:#F0B563;}
	.st19{fill:#FCA532;}
	.st20{fill:#F76C0D;}
	.st21{fill:#E9803E;}
	.st22{fill:#EFA563;}
	.st23{fill:#ED782B;}
	.st24{fill:#EF8A4E;}
	.st25{fill:#BDA85D;}
	.st26{fill:#C1A369;}
	.st27{fill:#90932A;}
	.st28{fill:#FCBCB1;}
	.st29{fill:#EAAD9C;}
	.st30{fill:#FBBBAA;}
	.st31{fill:#FAE9DD;}
	.st32{fill:#FBE7DC;}
	.st33{fill:#F8EBDA;}
	.st34{fill:#CDC2A0;}
	.st35{fill:#F87290;}
	.st36{fill:#F67390;}
	.st37{fill:#FA7290;}
	.st38{fill:none;stroke:#FFFFFF;stroke-width:6;stroke-miterlimit:10;}
	.st39{fill:none;stroke:#FFFFFF;stroke-width:0.75;stroke-miterlimit:10;}
	.st40{opacity:0.86;}
	.st41{fill:none;stroke:#FF9966;stroke-width:10;stroke-miterlimit:10;}
	.st42{fill:none;stroke:#FFFFFF;stroke-width:2;stroke-miterlimit:10;}
	.st43{fill:#F74674;}
	.st44{fill:#F85D86;}
	.st45{fill:#F7B3B0;}
	.st46{fill:#A67C52;}
</style>
<rect x="-2.5" y="-4" class="st10" width="1945" height="239"/>
<g>
	<g>
		<path class="st13" d="M871.7,95.8c1.2-1.5,2.3-3,3.5-4.5c0.5-0.6,0.6-1.5,0-2.1c-0.5-0.5-1.6-0.6-2.1,0c-1.2,1.5-2.3,3-3.5,4.5
			c-0.5,0.6-0.6,1.5,0,2.1C870.1,96.3,871.2,96.4,871.7,95.8L871.7,95.8z"/>
	</g>
</g>
<g>
	<path class="st13" d="M705.7,93.4h8.6v40.2h17.7v8.1h-26.3V93.4z"/>
	<path class="st13" d="M734.1,125.1c0-9.7,7.7-17.4,17.5-17.4c9.7,0,17.4,7.7,17.4,17.4c0,9.6-7.7,17.4-17.4,17.4
		C741.8,142.5,734.1,134.8,734.1,125.1z M761,125.1c0-5.8-3.9-10-9.4-10c-5.5,0-9.4,4.2-9.4,10s3.9,10,9.4,10
		C757.1,135.1,761,130.9,761,125.1z"/>
	<g>
		<path class="st13" d="M937.1,93.4H951c9.9,0,17.1,6.4,17.1,15.1c0,5.9-3.4,11-8.9,13.4l12.2,19.7h-10.1l-10.9-18h-4.6v18h-8.6
			V93.4z M950.7,115.7c5.4,0,8.9-2.8,8.9-7.2c0-4.3-3.5-7.2-8.9-7.2h-5v14.4H950.7z"/>
		<path class="st13" d="M974.2,125.2c0-10.1,7.1-17.5,16.8-17.5c9.2,0,16.3,6.7,16.3,16.5c0,1-0.1,1.9-0.3,3.2h-24.6
			c0.9,4.8,4.2,7.7,9.6,7.7c3.9,0,7.1-1.5,9.5-4.5l4.9,5c-3.5,4.5-8.9,6.9-14.8,6.9C981.4,142.5,974.2,135.2,974.2,125.2z
			 M999.1,121.3c-0.9-4.5-3.9-7.1-8.3-7.1c-4.4,0-7.4,2.7-8.4,7.1H999.1z"/>
		<path class="st13" d="M1014.2,90.5h7.9v51.1h-7.9V90.5z"/>
		<path class="st13" d="M1028.9,125.2c0-10.1,7.1-17.5,16.8-17.5c9.2,0,16.3,6.7,16.3,16.5c0,1-0.1,1.9-0.3,3.2h-24.6
			c0.9,4.8,4.2,7.7,9.6,7.7c3.9,0,7.1-1.5,9.5-4.5l4.9,5c-3.5,4.5-8.9,6.9-14.8,6.9C1036.1,142.5,1028.9,135.2,1028.9,125.2z
			 M1053.9,121.3c-0.9-4.5-3.9-7.1-8.3-7.1s-7.4,2.7-8.4,7.1H1053.9z"/>
		<path class="st13" d="M1064.2,108.5h8.4l7.9,19.3l8-19.3h8.1l-14.6,34.2h-3.6L1064.2,108.5z"/>
		<path class="st13" d="M1099.1,132.1c0-6.4,5.4-11.1,13-11.1c2.9,0,6,0.7,8.6,2.2v-1.2c0-4.3-3-7.2-7.4-7.2c-2.9,0-5.2,1.2-7.1,3.7
			l-5-5.5c3.6-3.7,7.8-5.4,12.7-5.4c8.9,0,14.8,5.8,14.8,14.4v19.6h-7.9v-3.5c-2.6,3-6.1,4.4-10,4.4
			C1104,142.5,1099.1,138.2,1099.1,132.1z M1120.6,129.6c-2.6-1.8-5-2.6-7.5-2.6c-3.8,0-6.1,1.9-6.1,4.6c0,2.7,2.2,4.5,5.6,4.5
			C1116.8,136.1,1119.9,133.4,1120.6,129.6z"/>
		<path class="st13" d="M1136.9,108.5h7.6v3.7c2.4-3,5.8-4.6,9.6-4.6c7.4,0,12.7,5.8,12.7,13.5v20.4h-7.9V123c0-5-2.7-8.1-7-8.1
			s-7.1,3.3-7.1,8.3v18.5h-7.9V108.5z"/>
		<path class="st13" d="M1177.3,131.1v-15.7h-5v-6.8h5v-9.1h7.9v9.1h9v6.8h-9v14.9c0,3.2,1.3,5,4,5c1.7,0,3.1-0.6,4.7-2.1l3.5,5.7
			c-2.1,2.3-5.5,3.6-9.2,3.6C1181.3,142.5,1177.3,138.1,1177.3,131.1z"/>
		<path class="st13" d="M1199.6,125.2c0-10.1,7.1-17.5,16.8-17.5c9.2,0,16.3,6.7,16.3,16.5c0,1-0.1,1.9-0.3,3.2h-24.6
			c0.9,4.8,4.2,7.7,9.6,7.7c3.9,0,7.1-1.5,9.5-4.5l4.9,5c-3.5,4.5-8.9,6.9-14.8,6.9C1206.8,142.5,1199.6,135.2,1199.6,125.2z
			 M1224.5,121.3c-0.9-4.5-3.9-7.1-8.3-7.1c-4.4,0-7.4,2.7-8.4,7.1H1224.5z"/>
		<path class="st13" d="M1242.4,137c0-2.9,2.2-5.2,5.1-5.2c2.9,0,5.1,2.3,5.1,5.2s-2.2,5.1-5.1,5.1
			C1244.6,142.2,1242.4,139.9,1242.4,137z M1243.2,93.4h8.6l-1.2,34.3h-6.2L1243.2,93.4z"/>
	</g>
	<g>
		<path class="st13" d="M800.6,138.2c-0.5-1.3-0.3-6.6-0.1-8.1c0.2-2.5-1-16.7-0.5-19.3c0.4-1.8,2.6-2.3,3.8-0.9
			c0.3,0.3,0.4,0.8,0.7,1.2c0.3,0.6,0.4,1.3,0.1,1.9c-0.2,0.6,0,1.3,0.1,1.9c1-2,2.3-4,4.1-5.4c1-0.9,2.3-1.5,3.6-1.7
			c1.7-0.2,3.5,0.7,4.8,1.9c1.2,1.1,2,2.6,2.5,4.1c0.1,0.1,0.4,0.6,0.4,0.7c0.1,0.1,0.2,0.4,0.2,0.3c0.8-1.7,1.7-3.5,2.8-5
			c1.2-1.7,2.7-3.5,4.6-4.3c1.3-0.6,2.8-0.8,4.1-0.5c1.7,0.3,3.2,1.6,4,2.9c1.8,3,2.8,6.5,3.3,9.9c0.8,5,0.6,10.1,0.9,15.2
			c0.1,2.3-2.3,4.7-4.7,4.3c-1-0.1-2.1-0.4-2.8-1.2c-0.5-0.5-1.1-1.1-1.3-1.9c-0.1-0.8-0.3-1.6-0.4-2.4c-0.2-4,0-8.1-0.2-12.2
			c-0.1-2.2-0.1-4.5-0.9-6.7c-1.9,2.2-3.3,4.8-4.3,7.5c-0.9,2.1-1.3,4.3-1.8,6.5c-0.1,0.7-0.6,3.9-1,4.5c-0.4,0.8-1,1.7-1.7,2.1
			c-1.8,1-4.2,0.3-5.2-1.4c-0.3-0.6-0.5-1.2-0.6-1.8c-0.3-1.5-0.5-3.1-0.6-4.6c-0.1-2.4-0.5-10.4-1.9-12.3c-0.7,0.3-1.3,1-1.8,1.6
			c-1.2,1.8-2,3.8-2.6,5.8c-0.9,2.7-1.5,5.6-1.8,8.4c-0.2,1.8,0,3.6,0.1,5.3c0,0.1,0.1,0.8,0.1,0.9c0,1.2,0,2.7-0.8,3.6
			C804.4,141.1,801.5,140.5,800.6,138.2z"/>
		<path class="st13" d="M849.6,134.7c-2-0.6-3.8-2.1-4.9-3.9c-1.1-1.5-1.5-3.5-1.6-5.4c-0.1-2.2,0.5-4.4,1.3-6.5
			c2.2-4.9,5.7-9.5,10-12.7c4.2-3.3,12.6-7.5,17.1-4.5c0.2,0.1,0.4,0.3,0.7,0.3c0.9,0.2,1.8,0.8,2,1.7c1.4,4.7,2.2,9.4,3.4,14.1
			c0.4,1.3,0.8,2.5,1.5,3.6c0.2,0.2,1,1.1,1.2,1.2c1,1.2,2.1,2.5,2.3,4.1c0.3,1.6-1,3-2.6,3.1c-1.2,0-2.4-0.1-3.5-0.6
			c-1.6-0.7-3.1-2.2-4-3.9c-1.2-2.1-1.7-4.7-2.1-7.2c-1.7,2.9-3.6,5.7-5.6,8.4c-2.2,3-4.7,6.1-8.1,7.7
			C854.7,135.4,851.9,135.5,849.6,134.7z M856.1,127.3c2.1-1.6,3.8-3.7,5.3-6c2.7-3.9,5.2-7.9,7.2-12.2c0.1-0.2,0.7-1.4,0.8-1.6
			c0.1-0.1,0-0.6-0.2-0.6c-0.6,0.2-3.2,1.4-3.8,1.7c-2.8,1.4-5.5,3.2-7.6,5.6c-1.7,1.9-3.4,3.9-4.7,6.1c-1.2,2-2.6,5.8-1,7.5
			C853,128.9,854.8,128.2,856.1,127.3z"/>
		<path class="st13" d="M889.5,133.8c-2.4-0.9-3.5-3.7-2-5.8c0.5-0.8,1.3-1.5,2.1-1.9c1.7-0.8,3.5-1.7,5.1-2.8
			c-1.4-2.1-3.3-3.8-5.2-5.4c-1.5-1.3-3.2-2.5-4.4-4.2c-0.6-1-1.2-2.2-1.2-3.3c-0.1-2.4,1.2-4.9,2.8-6.8c2.1-2.3,4.6-4.2,7.2-5.8
			c2-1.2,4.2-2.2,6.5-2.7c0.1,0,0.3-0.2,0.5-0.3c0.7-0.2,1.6-0.3,2.3-0.1c1,0.4,2.2,0.8,2.9,1.6c1.3,1.4,1.4,3.6,0.3,5
			c-1.3,1.5-3,2.3-4.7,3.2c-3.1,1.5-6.1,3.4-8.8,5.6c1.6,1.8,3.5,3.2,5.2,4.8c2.3,2.2,4.2,5.1,4.7,8.2c0.8,5.1-5.2,9.2-10.1,10.7
			C891.7,134.2,890.5,134.1,889.5,133.8z"/>
	</g>
	<g>
		<g>
			<g>
				<g>
					<g>
						<path class="st13" d="M896,141.2c0.1-0.1,0-0.3-0.1-0.2l-0.1,0.3L896,141.2z"/>
						<path class="st13" d="M895.2,140.5c-0.2,0.2-0.3,0.4-0.3,0.7c0.2-0.3,0.2-0.2,0.4-0.5c0.1,0,0.2,0.1,0.2,0.2
							c0-0.1,0.2,0.1,0.3-0.1c-0.1-0.3-0.4-0.3-0.6-0.1C895.1,140.7,895.1,140.6,895.2,140.5z"/>
						<path class="st13" d="M882.9,139.7L882.9,139.7C883,139.7,883,139.7,882.9,139.7z"/>
						<path class="st13" d="M875.4,139.7C875.4,139.7,875.4,139.7,875.4,139.7C875.4,139.7,875.3,139.7,875.4,139.7z"/>
						<path class="st13" d="M874,139.4C874.1,139.5,874.1,139.5,874,139.4C874.1,139.4,874.1,139.4,874,139.4z"/>
						<path class="st13" d="M882.9,139.7l-0.2-0.1C882.7,139.7,882.8,139.7,882.9,139.7z"/>
						<path class="st13" d="M893.4,141.2c0,0,0.1,0,0.1-0.1C893.5,141.1,893.5,141.2,893.4,141.2L893.4,141.2z"/>
						<path class="st13" d="M886.3,139.4L886.3,139.4c0.1,0,0.1-0.1,0.1-0.1L886.3,139.4z"/>
						<path class="st13" d="M888.9,139.4c-0.1,0-0.1,0.3-0.1,0.4c0-0.1,0.1-0.2,0.1-0.2C888.9,139.6,888.9,139.5,888.9,139.4z"/>
						<path class="st13" d="M892.9,140L892.9,140C893,140,892.9,140,892.9,140z"/>
						<path class="st13" d="M884.5,139.4c0,0,0-0.1,0-0.1C884.4,139.3,884.4,139.3,884.5,139.4z"/>
						<path class="st13" d="M814.2,151.9C814.2,151.9,814.2,151.8,814.2,151.9C814.2,151.9,814.2,151.9,814.2,151.9z"/>
						<polygon class="st13" points="811,151.4 811,151.4 811,151.3 						"/>
						<path class="st13" d="M871.7,139.2C871.7,139.2,871.7,139.2,871.7,139.2C871.7,139.2,871.7,139.2,871.7,139.2z"/>
						<path class="st13" d="M850,141.7c0.3,0.2-0.4,0.4,0.1,0.6C850,142.2,850.3,141.8,850,141.7z"/>
						<path class="st13" d="M893.4,141.2c0,0-0.1,0-0.1,0C893.3,141.2,893.3,141.2,893.4,141.2z"/>
						<path class="st13" d="M850,142.3L850,142.3L850,142.3C850.1,142.3,850.1,142.3,850,142.3z"/>
						<path class="st13" d="M866.2,139.8c0,0,0,0.1,0.1,0.1C866.3,139.9,866.2,139.8,866.2,139.8z"/>
						<path class="st13" d="M870.3,139.9l-0.1,0C870.2,139.9,870.3,139.9,870.3,139.9z"/>
						<path class="st13" d="M864.1,140.4c-0.1,0-0.1-0.1-0.1,0c0,0,0,0,0,0C864,140.3,864.1,140.3,864.1,140.4z"/>
						<path class="st13" d="M861.9,140.6C862,140.6,862,140.6,861.9,140.6l0.1,0L861.9,140.6z"/>
						<path class="st13" d="M820.5,149.9c-0.1-0.1-0.1-0.1-0.2-0.2C820.5,149.9,820.2,150,820.5,149.9z"/>
						<path class="st13" d="M893.4,141.1c0,0.1,0,0.1-0.1,0.1l0.1,0C893.5,141.1,893.5,141.1,893.4,141.1z"/>
						<path class="st13" d="M864.2,142.6l-0.3,0C864,142.6,864.1,142.6,864.2,142.6z"/>
						<path class="st13" d="M835.8,146.4L835.8,146.4C835.8,146.4,835.8,146.4,835.8,146.4z"/>
						<path class="st13" d="M862.9,142.7c-0.1-0.1-0.1-0.1-0.2-0.2c0,0,0,0,0,0.1L862.9,142.7z"/>
						<path class="st13" d="M820.4,149.7L820.4,149.7L820.4,149.7z"/>
						<path class="st13" d="M818.4,151c0.3-0.1,0.1-0.4,0.1-0.6c0.4-0.2,0.2,0.2,0.4,0.4c0.2-0.2,0.3-0.5,0.5-0.6
							c0,0.1,0.1,0.1,0,0.2c0.2-0.4,0.7-0.2,0.9-0.7c0,0,0,0.1,0.1,0.1c-0.1-0.2-0.2-0.3-0.2-0.5c0.1,0,0.2-0.3,0.3-0.1
							c-0.1,0-0.1,0.1-0.1,0.2l0.1-0.1c0.2,0.3-0.2,0.2-0.1,0.4c0.3-0.2,0.5-0.6,0.8-0.5c0.1,0.3-0.5,0.2-0.1,0.5l-0.4,0
							c0.4,0.5-0.2,0,0.2,0.5c0.5,0,0.5-0.3,0.9-0.3c0.1-0.2-0.1-0.3,0-0.5c0.6-0.5,0.7,0.7,1.1,0.1c0.1-0.3,0-0.7,0.4-0.5l0,0.4
							c0.5-0.1,0.1-0.6,0.6-0.5c0,0.2-0.3,0.2-0.2,0.2c0.4,0.2,0.2-0.3,0.4-0.3l0.1,0.3c0.5-0.2,0.9-0.5,1.4-0.7
							c0,0.1-0.1,0.2,0.1,0.3c0.6-0.3,1.4-0.3,2.1-0.2l0.2-0.3c0.1,0,0.1,0.1,0.1,0.2c0.3,0.1,0-0.2,0.1-0.3
							c0.1-0.1,0.2,0.1,0.2,0.2c0.4-0.3,1.1-0.8,1.7-0.6l-0.1,0.1c0.4,0,0.3-0.7,0.7-0.5l-0.1,0.1c0.8-0.1,1.6-0.5,2.3-0.2
							c0-0.4,0.8,0,0.7-0.6c0.5,0.2,0.4,0.3,1.1,0.4c0.2,0,0.2-0.4,0.4-0.5l0.1,0.3l0.2-0.4l0.2,0.3l0.2-0.1c-0.1,0-0.2-0.1-0.2-0.2
							c0.3-0.2,0.8,0.1,0.8,0.2l0.7-0.4c0,0.1-0.1,0.2-0.2,0.3c0.3-0.4,0.1,0.3,0.4,0c-0.1-0.1,0-0.2,0-0.2c0.2,0.2,0.6,0.1,0.9-0.1
							l0,0.2c0.5,0,1.1-0.3,1.7-0.4c-0.2-0.1-0.3-0.4-0.1-0.5l0.1,0.3c0.1-0.2-0.2-0.1,0-0.4c0.2,0,0.2,0.3,0.1,0.5l0.3-0.2
							c0,0.1,0,0.2,0,0.3c0.1-0.2,0.5,0.2,0.6-0.1l0,0.1c0.6-0.1,0.9-0.3,1.4-0.4c0-0.3,0.2-0.2,0.3-0.5c0.4,0,0.8,0.2,1.3,0.1
							c0.3-0.2,0.1-0.2,0.2-0.4c0.1,0.2,0.5,0.2,0.3,0.4c0.5-0.1,0.7-0.2,1.3-0.5c-0.1-0.1-0.2-0.1-0.1-0.2c0.1-0.1,0.3,0.1,0.3,0.2
							l0,0c0.7-0.5,1.8,0.4,2.4-0.2l0,0l0.6-0.4c0.3,0-0.1,0.2,0.1,0.3c0.6-0.5,1.1-0.1,1.6-0.4c0.5,0.7,1.5-0.3,2.1,0.1l-0.1-0.2
							c0.1-0.2,0.2,0.1,0.3,0.1c0-0.1-0.2-0.1-0.1-0.2c1.2-0.4,2.6-0.1,3.9-0.1c0.5,0,0.2-0.9,0.8-0.6l-0.1,0.3
							c0.9-0.5,1.9-0.2,2.8-0.6c0,0.1,0,0.2-0.1,0.2c0.2,0.2,0.7-0.1,0.7-0.3c0.1,0,0.1,0.2,0.2,0.3c0.2,0.1,0.5-0.4,0.6-0.1
							c0,0,0,0.1-0.1,0.1c0.1-0.1,0.6,0,0.5-0.3c0.4,0.1,0.7-0.2,1-0.1c0.2-0.3,0.6,0.1,0.6-0.4c0,0.5,0.6,0.3,0.9,0.1
							c-0.1,0.1,0.2,0.1,0.1,0.3c0.3,0,0.5-0.1,0.4-0.4c0.5,0.5,0.9-0.5,1.2,0.2c0.7-0.3,1.4-0.5,2.1-0.7c0,0.5-0.7,0.1-0.7,0.6
							c0.6-0.2,1-0.7,1.6-0.6c0.2,0-0.1,0.2-0.1,0.3c0.6-0.2,1.2-0.1,1.8-0.3c0,0-0.1,0.1-0.1,0.1c0.1,0,0.3,0.1,0.2-0.2l-0.1,0.1
							c-0.2-0.3,0.4-0.6,0.4-0.8c-0.2,0.6,0.6,0.1,0.3,0.9c0.1,0,0.2-0.1,0.1-0.3c0.1,0,0.2,0.1,0.1,0.3c0.4-0.1,0.2-0.3,0.6-0.4
							c0,0.1-0.1,0.1-0.1,0.3c0.2-0.2,0.3-0.4,0.7-0.3c0,0.1,0,0.1-0.1,0.1c0.5-0.1,0.9-0.6,1.5-0.4c-0.1,0.4,0.2,0.1,0.3,0.5
							l0.3-0.1l-0.1-0.2c0.3,0,0.5-0.3,0.7-0.2l-0.2,0.2l0.5-0.1l-0.3-0.1c0.3-0.2-0.1-0.5,0.3-0.4c-0.1,0,0.3,0,0.4,0.2l0,0
							c0.1-0.1,0.3-0.3,0.5-0.2c0.1,0.1,0,0.4,0,0.5c0.1-0.3,0.6-0.1,0.8-0.4c-0.1,0.1,0,0.3,0,0.3l0.1-0.3c0.1,0.1,0.2,0.1,0.1,0.3
							c0.4,0-0.1-0.5,0.3-0.3c0,0,0,0.1-0.1,0.1c0.5,0.1,0.9-0.2,1.3-0.1c0.1,0.4-0.4,0.1-0.2,0.4c0.6-0.1,1.2-0.5,1.8-0.4l-0.1,0
							c0.1-0.5,0.4,0.2,0.7,0c-0.1,0-0.1,0.3-0.1,0.2c0.4,0.1,0.8-0.1,1.4-0.3l-0.1,0.1c0.2,0.1,0.6,0.1,0.9,0.1
							c0.1-0.1,0.2-0.1,0.1-0.3c0.8,0.8,1.5-0.4,2.2,0.2c-0.1,0-0.2,0.1-0.1,0.1l0.6-0.1c0-0.2-0.1-0.1-0.2-0.3
							c0.1-0.1,0.2-0.2,0.4-0.2c-0.3,0.1,0,0.4,0.1,0.5c0-0.1,0-0.1,0-0.2c0.3,0.4,0.1-0.5,0.5-0.2l0,0.1c0.2-0.1,0.3-0.2,0.5-0.2
							c0.1,0.3-0.2,0.1-0.2,0.3c0.2,0,0.5-0.5,0.7-0.2c-0.1,0.1-0.3,0.1-0.4,0.1c0.2,0.3,0.3,0.2,0.4,0.3l0,0l0.4,0.2l-0.1-0.1
							c0.3-0.7,0.6-0.1,1-0.6c-0.4,0.4-0.1,0.2-0.1,0.6c0.1,0.1,0.3,0.2,0.2,0.3c0.2-0.2,0.3,0.2,0.6-0.2c0,0.1,0.2,0,0.2,0.3
							c0.3-0.1-0.1-0.2,0-0.3c0.4-0.3,0.9,0.4,1.5,0c0.5-0.2,0.6-0.5,1-0.6c0.1,0.2-0.1,0.3-0.1,0.3c0.2,0.2,0.4,0.1,0.6,0
							c-0.1,0.1,0,0.2,0.1,0.3c0.2,0,0.1-0.3,0.4-0.2c0,0.1-0.1,0.3-0.2,0.4c0.2-0.1,0.4-0.2,0.7-0.3c0,0.2-0.1,0.3-0.2,0.4
							c0.3-0.1,0.7-0.1,0.7-0.4l-0.2-0.1c0.1,0,0,0.2,0,0.3c-0.2,0.2-0.3-0.1-0.3-0.2l0.2-0.1c-0.1-0.6-0.6,0.1-1,0l0.2-0.4
							l-0.3,0.3c-0.1-0.1-0.1-0.3,0.1-0.4c-0.2-0.2-0.2,0.1-0.4-0.1c0,0,0-0.1,0-0.1l-0.2,0.1c0-0.1,0-0.3,0.1-0.2
							c-0.4-0.3-0.7,0.3-0.8,0l0,0c-0.6,0.1-0.1,0.3-0.5,0.6l-0.3-0.8l-0.1,0.3c-0.1,0-0.2,0-0.1-0.2c-0.2,0.2,0,0.1-0.1,0.3
							c-0.3-0.3-0.8,0.1-0.8-0.4c-0.1,0.2,0.3,0.2,0,0.3c-0.1-0.5-0.3,0.1-0.6-0.2c0.1-0.3,0.3-0.1,0.1-0.4c-0.2,0.5-0.5-0.1-0.7,0
							c0,0.4-0.5,0.1-0.8,0.3c0-0.1-0.7-0.2-1-0.4l0-0.1c-0.1,0.4-0.4,0.3-0.7,0.4c0-0.2,0.1-0.3,0.2-0.4l-0.2,0
							c-0.1,0.1-0.1,0.2-0.3,0.2l0.1-0.3c-0.3,0-0.6,0.3-1,0.1c0,0.3,0.3,0.7-0.1,0.9c0-0.1,0-0.4,0.1-0.4c0,0-0.1,0.1-0.2,0.1
							l0.2-0.2c-0.2-0.1-0.1,0.2-0.2,0.2c0-0.2-0.1-0.1-0.1-0.3c0,0,0.1,0.1,0.2,0c-0.2,0-0.4-0.1-0.4-0.3c0,0.1,0,0.3-0.1,0.3
							c-0.3,0-0.1-0.2-0.3-0.3c-0.1,0.1-0.3,0-0.3,0.3c-0.1,0-0.1-0.1-0.1-0.2c-0.2,0.1-0.8,0-0.6,0.4l0,0l0,0h0h0
							c-0.5,0.3-1.1-0.2-1.6,0l0-0.1c-0.3,0.1-0.7,0.1-0.9,0.3c-0.1,0-0.2-0.2-0.2-0.3c-0.2,0.1-0.3,0.2-0.6,0
							c0.2-0.2-0.1-0.1,0.2-0.1c-0.3-0.1-0.4-0.2-0.7,0.1c0.1-0.3-0.2-0.3-0.4-0.2l0.2,0.2c-0.2,0-0.3,0-0.5,0l0.1-0.3
							c-0.7-0.4-1.1,0.7-1.6,0.1c-0.2,0.2,0.4,0.2,0.2,0.4c-0.3,0-0.6-0.5-0.7-0.5c-0.4-0.2-0.4,0.5-0.8,0.4
							c0.1,0.1,0.1,0.4-0.2,0.6c-0.3,0-0.4-0.5-0.2-0.6c0.1,0,0.1,0,0.1,0.1c0.1,0,0.2-0.1,0.1-0.2l0,0.1c-0.2-0.1-0.6-0.1-0.5-0.3
							c-0.2,0.1-0.1,0.2,0.1,0.3c-0.4-0.1-0.6,0-1-0.1c0.1,0.1,0.1,0.2,0.1,0.2c-0.6-0.1-0.2,0.2-0.6,0.3c-0.2-0.2,0.1-0.4-0.3-0.3
							c-0.2-0.1-0.1-0.3,0-0.4c-0.3,0.2-0.7-0.1-0.9-0.1l0.2-0.1c-0.1,0.1-0.2,0.1-0.3,0.1l0.1,0.2c-0.1,0-0.2,0-0.2-0.1
							c-0.1,0.2,0.1,0.4-0.1,0.6c-0.2-0.1-0.4,0.2-0.5-0.2c0.5,0.1-0.1-0.3,0.3-0.4c-0.1,0-0.2,0-0.3,0c0,0,0-0.1,0-0.1
							c-0.5-0.3-0.2,0.4-0.6,0.4c0-0.2-0.1-0.3-0.2-0.3c0.2,0,0.1,0.3-0.1,0.4c-0.3-0.1-0.3,0.1-0.5,0.1l0.2,0.1
							c0,0.2-0.2,0.2-0.4,0.2c0-0.1,0.2-0.1,0.1-0.2c-0.2,0.3-0.5-0.3-0.8-0.1c-0.2-0.1,0-0.3-0.2-0.4c-0.3,0.3-0.4-0.2-0.8,0
							c0.1,0.2,0.1,0.2-0.1,0.4l0.6-0.2l-0.4,0.4c0.2,0,0.4-0.2,0.5-0.1c-0.2,0.2-0.2,0.1-0.1,0.3c-0.3-0.3-0.5,0.2-0.8,0l0-0.6
							c-0.5-0.2-0.8,0.4-1.3,0.3l0.2,0.1c-0.1,0.2-0.3,0.1-0.5,0.2c0-0.2-0.1-0.3-0.2-0.4c0,0.1-0.4,0-0.4,0.4l-0.3-0.2
							c-0.5-0.1-0.5,0.6-0.9,0.6c0.1-0.2-0.1-0.3,0.2-0.5c-0.1,0-0.3,0-0.3,0.1c-0.1-0.1-0.4,0.3-0.5,0.1c-0.1,0.1-0.1,0.3-0.2,0.3
							c0,0,0-0.1,0-0.1c0,0.1-0.2,0.2-0.1,0.4c-0.5-0.6-1.3,0.2-1.7-0.3c-0.3,0.1-0.7,0.2-1,0.2c0-0.1,0-0.1,0-0.1
							c-0.4-0.1-0.2,0.6-0.7,0.4c-0.3-0.3,0.2-0.2,0.1-0.3c-0.1-0.6-0.5,0.1-0.9-0.2l0.1,0c-0.3-0.2-0.5,0.3-0.9,0.3
							c0,0,0-0.1,0-0.1c-0.2,0.4-0.7,0.5-1.1,0.7c0.1-0.3,0.2-0.2,0.1-0.4c-0.2,0.1,0.1,0.4-0.2,0.5c-0.1-0.1-0.4-0.2-0.4-0.5
							l0.3-0.1c-0.2-0.3-0.4,0.1-0.6,0l0-0.2c-0.5,0.1-0.4,0.5-0.9,0.5l0.1,0.1c-0.2,0.4-0.3-0.2-0.5,0.1l-0.1-0.4
							c-0.2,0.1-0.6,0.5-0.9,0.6c0.2-0.3,0.5-0.5,0.7-0.7c-0.2,0-0.6,0.1-0.7,0.3c0.1,0,0.2-0.2,0.2-0.1c-0.2,0.3-0.5,0.5-0.8,0.6
							c0-0.8-1-0.1-1.3-0.6c-0.6,0.4-1.3,0.1-2,0.2c0.3,0.6-0.2,0-0.1,0.6c-0.2,0.1-0.2,0.1-0.3,0l-0.6-0.3
							c-0.2-0.2,0.1-0.2,0.1-0.3c-0.4,0-0.2-0.2-0.5-0.4c0.1,0.2-0.1,0.3-0.3,0.3l0.3,0.2c-0.5,0.4-0.5-0.4-1,0l0.1-0.2
							c-0.3,0.2-1,0.1-1.2,0.7c-0.1-0.1-0.1-0.2,0-0.3c-0.7,0-1.4,0.8-2,0.5l0-0.2c-0.1,0.1-0.2,0.3-0.3,0.2c0-0.1,0-0.2,0-0.2
							c-0.1,0.1-0.3,0.3-0.5,0.3l0.1-0.2c-0.7-0.1-0.9,0.6-1.4,0.8c-0.1-0.4-0.6-0.5-0.9-0.5l0-0.1c-0.8,0.1-1.2,0.6-1.9,0.9
							c-0.5-0.4-1.5,0.1-2.2-0.1c0.1,0.1,0,0.3-0.1,0.4c-0.2-0.1-0.4,0.4-0.4,0l0.1,0c-0.2-0.4-0.5-0.2-0.8-0.2l0.1,0.5
							c-0.8-0.6-1.7,0.6-2.2,0c-0.1,0.2-0.3,0.2-0.5,0.4l0-0.3c-0.5,0-0.7,0-1.2,0.2l0.1-0.2c-0.3,0-0.2,0.9-0.5,1l-0.2-0.4
							c-0.5,0.1-1.2-0.1-1.7,0.4c0-0.1,0-0.2,0.1-0.2c-0.3,0-1.1-0.1-0.8,0.5c-0.1-0.4-0.6,0.1-0.8,0.3l0-0.3
							c-0.2,0.4-0.2,0.5-0.5,0.7c-0.1,0-0.1-0.2,0-0.2c-0.3-0.1-0.2,0.3-0.5,0.2l0.1-0.2c-0.3,0-0.2,0.1-0.4,0.4
							c-0.2,0.1-0.6,0.1-0.7-0.2c0,0.2-0.1,0.4-0.3,0.4c0-0.1,0-0.2,0-0.2c-0.5-0.1-0.6,0.5-1,0.3c0-0.1-0.1-0.1-0.1-0.1
							c0.4-0.1,0.7-0.1,0.7-0.1c-0.1-0.3-0.4-0.2-0.2-0.6c-0.2,0.2-0.5,0.7-0.8,0.7c0,0,0,0-0.1-0.1l0,0c-0.1,0-0.1,0-0.2,0.1
							c-0.1,0-0.2,0-0.3,0c-0.1-0.2-0.4,0-0.5,0c0.1,0.3-0.1,0.3,0.1,0.5c0,0,0,0,0.1-0.1c0,0,0,0,0.1,0l0,0c0.1,0,0.2-0.1,0.4-0.1
							c-0.1,0.2-0.2,0.3-0.4,0.2c0,0.2-0.1,0.4-0.1,0.5c-0.3-0.3-0.7-0.4-0.9-0.7c-0.4,0.3-1.1,0.4-1.2,1c-0.1,0.1-0.2-0.1-0.3-0.2
							c0.1-0.1,0.2-0.1,0.2-0.2c-0.2,0.2-0.8,0.2-0.7,0.6c-0.4-0.1,0.1-0.4-0.3-0.2l0-0.1c-1-0.4-1.2,1.3-2.4,0.8
							c0.1,0,0.1,0,0.2,0.1c-1.2,0-2.2,0.9-3.5,0.7c-0.3,0-0.3,0.2-0.4,0.5l-0.2-0.3l-0.2,0.4c-0.4,0.4-1-0.5-1.5,0.2l0.1,0.2
							c-0.2,0-0.6,0.3-0.7,0.1c0,0,0,0.2-0.1,0.1l-0.1-0.1l-0.4,0.4c-0.4,0-0.1-0.6-0.7-0.5c-0.2,0.1-0.5,0.6-0.4,0.7
							c0.1,0,0.3,0,0.3,0.2l-0.2,0.1c0.1,0.5,0.1,1,0.7,1.1l0.2-0.4l0.2,0.2l-0.3,0.1c0.2,0.2,0.3-0.1,0.3-0.2
							c0.1,0.1,0.1,0.2,0.2,0.2l0.2-0.5c0.1,0.2,0,0.4,0.2,0.4c0.1-0.2-0.3-0.3-0.1-0.6c0.2,0.2,0.2,0.3,0.4,0.1
							c0.1,0.1,0,0.2,0,0.3c0.1-0.2,0.4-0.2,0.4-0.5c0.2,0.2,0.5-0.2,0.7,0.2c0-0.1,0.2-0.4,0.3-0.5c-0.1,0.6,0.6-0.1,0.7,0.4
							c0.1-0.5,0.7-0.4,1-0.8c0,0,0,0.1-0.1,0.1c0.2,0,0.3,0.1,0.5,0.1c-0.1-0.4,0.2-0.6,0.3-0.8c0.4,0.3,0,0.5,0.2,0.8
							c-0.1-0.3,0.4-0.4,0.2-0.7c0.3,0.2,0.2,0.1,0.4,0.3c-0.1-0.5,0.2-0.1,0.2-0.5c0.3,0.2,0.2,0.4,0.5,0.2
							C818.6,150.7,818.4,151,818.4,151z M825.6,148.2L825.6,148.2c-0.1,0-0.1,0-0.1,0.1C825.5,148.2,825.5,148.2,825.6,148.2z
							 M826.2,148c-0.1,0-0.2,0-0.3,0.1c0-0.1,0-0.2,0-0.2C826,148,826.1,148,826.2,148z M824.4,146.5c0.1-0.1,0.1,0,0.2,0
							c0,0-0.1,0-0.2,0.1l0,0C824.4,146.6,824.4,146.5,824.4,146.5z"/>
						<path class="st13" d="M824.4,146.9C824.3,146.9,824.3,146.9,824.4,146.9C824.3,146.9,824.4,146.9,824.4,146.9L824.4,146.9
							L824.4,146.9z"/>
						<path class="st13" d="M883,139.8L883,139.8C883,139.8,883,139.8,883,139.8C883,139.8,883,139.8,883,139.8z"/>
						<polygon class="st13" points="835.1,146.7 835.1,146.6 835.1,146.7 						"/>
						<path class="st13" d="M886.6,140.7C886.6,140.7,886.6,140.8,886.6,140.7C886.7,140.8,886.7,140.7,886.6,140.7z"/>
						<path class="st13" d="M888.2,140.8l0.2,0.1C888.3,140.8,888.2,140.8,888.2,140.8z"/>
						<path class="st13" d="M889.4,141c0,0,0-0.1,0-0.1l0,0L889.4,141z"/>
						<path class="st13" d="M870.5,141.7C870.5,141.7,870.5,141.8,870.5,141.7C870.4,141.8,870.4,141.8,870.5,141.7z"/>
						<path class="st13" d="M876.1,140.8c-0.1,0.1-0.1,0.1-0.2,0.1C876,140.9,876.1,140.9,876.1,140.8z"/>
						<polygon class="st13" points="864.3,142.6 864.3,142.6 864.2,142.6 						"/>
						<path class="st13" d="M875.6,140.9c0.1,0.1,0.2,0,0.3,0C875.8,140.9,875.7,140.9,875.6,140.9z"/>
						<path class="st13" d="M894.5,141.3L894.5,141.3C894.5,141.3,894.5,141.3,894.5,141.3L894.5,141.3z"/>
						<path class="st13" d="M894.6,141.3L894.6,141.3C894.6,141.2,894.6,141.2,894.6,141.3z"/>
						<path class="st13" d="M894.8,141.2l-0.1,0.1C894.7,141.2,894.7,141.3,894.8,141.2z"/>
						<path class="st13" d="M892.9,141.1l0,0.1C892.9,141.2,892.9,141.1,892.9,141.1z"/>
						<path class="st13" d="M892.4,141.1c0.1,0,0.3,0.2,0.4,0.2l0-0.1C892.8,141.3,892.6,140.9,892.4,141.1z"/>
						<path class="st13" d="M890.5,139.7l0.4,0.1c-0.1-0.1-0.2-0.3,0-0.3C890.4,139.2,891,139.8,890.5,139.7z"/>
						<path class="st13" d="M889.3,139.6c0.2,0,0-0.2,0-0.2C889.1,139.4,889.1,139.5,889.3,139.6z"/>
						<path class="st13" d="M880.2,139.6l0-0.3C880.1,139.4,880.2,139.4,880.2,139.6z"/>
						<polygon class="st13" points="878.5,141 878.7,141.1 878.8,140.9 						"/>
						<polygon class="st13" points="877.5,139.2 877.5,139.1 877.2,139.2 						"/>
						<path class="st13" d="M862.3,140.3l0.1,0.3C862.5,140.5,862.5,140.2,862.3,140.3z"/>
						<path class="st13" d="M855.8,141.3c-0.1-0.1-0.3-0.2-0.4-0.1C855.6,141.3,855.8,141.4,855.8,141.3z"/>
						<polygon class="st13" points="836.3,143.8 836.4,143.7 836.2,143.8 						"/>
					</g>
				</g>
			</g>
		</g>
	</g>
</g>
</svg>
